<svg id="svg" version="1.1" width="400" height="488.96434634974537" viewBox="0 0 400 488.96434634974537" xmlns="http://www.w3.org/2000/svg" xmlns:xlink="http://www.w3.org/1999/xlink" ><g id="svgg"><path id="path0" d="M135.261 0.935 C 134.784 1.443,134.529 2.008,134.696 2.189 C 134.863 2.370,134.581 2.415,134.068 2.288 C 133.357 2.113,133.191 2.198,133.364 2.650 C 133.497 2.997,133.420 3.136,133.178 2.986 C 132.628 2.647,131.539 3.577,131.866 4.107 C 132.015 4.348,131.930 4.404,131.664 4.239 C 131.389 4.069,131.016 4.367,130.737 4.977 C 130.481 5.540,130.159 6.000,130.022 6.000 C 129.449 6.000,128.364 8.470,128.571 9.305 C 128.693 9.797,128.689 9.975,128.563 9.700 C 128.043 8.567,126.482 10.995,126.949 12.211 C 127.073 12.535,127.046 12.800,126.887 12.800 C 126.729 12.800,126.662 16.316,126.737 20.614 C 126.826 25.662,126.726 28.607,126.456 28.933 C 125.289 30.339,130.870 38.746,132.359 37.825 C 132.616 37.667,132.704 37.784,132.577 38.115 C 132.460 38.421,132.642 38.903,132.982 39.185 C 133.535 39.644,133.600 47.348,133.600 112.764 L 133.600 185.830 131.993 188.917 C 131.075 190.678,130.449 192.389,130.534 192.902 C 130.616 193.396,130.606 193.575,130.512 193.300 C 130.196 192.374,129.806 192.801,128.497 195.506 C 127.119 198.357,125.540 201.266,125.190 201.600 C 125.075 201.710,124.511 202.700,123.937 203.800 C 122.939 205.712,121.884 207.651,119.696 211.600 C 119.148 212.590,117.999 214.712,117.143 216.315 C 115.120 220.107,114.642 220.958,114.400 221.200 C 114.290 221.310,114.004 221.760,113.763 222.200 C 113.523 222.640,112.742 224.054,112.028 225.342 C 111.313 226.631,110.814 228.012,110.919 228.412 C 111.039 228.870,110.930 229.071,110.627 228.955 C 109.901 228.676,107.892 232.607,108.200 233.702 C 108.392 234.385,108.355 234.459,108.048 234.012 C 107.826 233.688,107.589 233.508,107.522 233.612 C 107.217 234.084,106.187 235.966,104.810 238.568 C 103.985 240.125,102.933 242.030,102.472 242.800 C 102.011 243.570,101.320 244.830,100.938 245.600 C 100.555 246.370,100.064 247.121,99.847 247.270 C 99.598 247.439,99.648 247.776,99.982 248.179 C 100.427 248.714,100.422 248.783,99.956 248.604 C 99.281 248.346,98.313 249.871,94.885 256.600 C 94.549 257.260,93.962 258.250,93.581 258.800 C 93.200 259.350,92.902 259.890,92.919 260.000 C 92.947 260.184,92.555 260.912,91.302 263.000 C 91.038 263.440,90.512 264.430,90.132 265.200 C 89.752 265.970,89.339 266.690,89.213 266.800 C 89.087 266.910,88.766 267.450,88.499 268.000 C 88.232 268.550,87.379 270.080,86.602 271.400 C 85.825 272.720,84.847 274.520,84.428 275.400 C 84.009 276.280,83.014 278.080,82.217 279.400 C 81.178 281.120,80.832 282.083,80.996 282.800 C 81.157 283.507,81.114 283.634,80.847 283.233 C 80.372 282.519,78.689 285.029,78.945 286.070 C 79.047 286.486,78.919 286.667,78.607 286.547 C 78.331 286.441,78.003 286.680,77.878 287.077 C 77.653 287.796,75.982 290.818,75.600 291.200 C 75.489 291.310,74.994 292.210,74.499 293.200 C 73.487 295.223,71.121 299.591,69.406 302.600 C 68.011 305.049,66.880 307.117,65.360 310.000 C 64.722 311.210,64.012 312.401,63.782 312.647 C 63.552 312.892,62.653 314.512,61.784 316.247 C 60.915 317.981,60.113 319.490,60.002 319.600 C 59.170 320.424,58.407 322.526,58.594 323.482 C 58.760 324.335,58.731 324.412,58.469 323.809 C 58.151 323.077,57.164 324.013,57.001 325.200 C 56.986 325.310,56.513 326.120,55.949 327.000 C 55.386 327.880,54.591 329.320,54.183 330.200 C 53.775 331.080,53.261 331.923,53.041 332.073 C 52.820 332.223,52.640 333.015,52.640 333.833 C 52.640 334.651,52.571 335.113,52.487 334.860 C 52.402 334.607,52.189 334.400,52.012 334.400 C 51.511 334.400,50.311 337.191,50.548 337.808 C 50.675 338.140,50.558 338.282,50.254 338.165 C 49.946 338.047,49.288 338.878,48.574 340.286 C 47.928 341.559,47.265 342.660,47.100 342.733 C 46.935 342.807,46.800 343.014,46.800 343.195 C 46.800 343.375,46.146 344.665,45.347 346.062 C 43.458 349.362,41.438 353.042,40.549 354.800 C 40.160 355.570,39.742 356.290,39.621 356.400 C 39.403 356.598,39.159 357.035,36.609 361.800 C 35.902 363.120,34.817 365.100,34.197 366.200 C 33.578 367.300,32.493 369.280,31.787 370.600 C 29.212 375.413,28.997 375.803,28.800 376.000 C 28.585 376.215,28.464 376.430,26.316 380.400 C 23.912 384.842,22.550 387.317,21.255 389.600 C 20.568 390.810,19.600 392.610,19.103 393.600 C 18.606 394.590,18.065 395.460,17.900 395.533 C 17.735 395.607,17.600 396.012,17.600 396.433 C 17.600 396.855,17.458 397.200,17.284 397.200 C 17.111 397.200,16.436 398.235,15.784 399.500 C 15.133 400.765,14.466 401.860,14.303 401.932 C 14.140 402.005,14.189 402.406,14.412 402.823 C 14.725 403.408,14.695 403.535,14.281 403.376 C 13.502 403.077,11.474 406.942,11.800 408.102 C 11.992 408.785,11.955 408.859,11.648 408.412 C 11.426 408.088,11.189 407.908,11.122 408.012 C 11.055 408.115,10.804 408.560,10.564 409.000 C 8.787 412.261,7.860 413.870,7.509 414.300 C 7.285 414.575,7.226 414.800,7.378 414.800 C 7.530 414.800,7.327 415.296,6.927 415.902 C 5.591 417.926,5.208 418.590,4.507 420.100 C 4.125 420.925,3.674 421.600,3.506 421.600 C 3.338 421.600,3.199 421.825,3.198 422.100 C 3.197 422.375,2.749 423.483,2.201 424.562 C 1.447 426.048,1.314 426.655,1.652 427.062 C 2.093 427.593,2.048 427.652,1.133 427.750 C 0.500 427.818,0.258 428.665,0.779 428.987 C 1.010 429.130,1.189 429.642,1.175 430.124 L 1.149 431.000 0.788 430.100 C 0.115 428.427,0.070 429.177,0.088 441.800 C 0.104 452.983,0.317 456.022,0.924 453.700 C 1.075 453.124,1.115 453.145,1.154 453.820 C 1.179 454.271,0.975 454.868,0.700 455.147 C 0.299 455.553,0.338 455.756,0.894 456.166 C 1.275 456.448,1.481 456.786,1.350 456.917 C 1.070 457.197,2.071 459.600,2.468 459.600 C 2.618 459.600,2.813 459.285,2.899 458.900 C 2.986 458.515,3.051 458.920,3.043 459.800 C 3.029 461.271,6.074 466.724,8.119 468.890 C 8.383 469.171,9.083 470.047,9.673 470.838 C 11.978 473.927,16.417 477.921,17.292 477.692 C 17.826 477.552,18.030 477.628,17.860 477.903 C 17.449 478.568,19.896 480.811,20.713 480.519 C 21.091 480.383,21.267 480.420,21.103 480.599 C 20.547 481.213,21.657 482.000,22.746 481.764 C 23.553 481.589,23.660 481.633,23.202 481.952 C 22.472 482.460,23.792 483.655,24.700 483.306 C 24.993 483.194,25.180 483.326,25.116 483.601 C 25.052 483.875,25.225 484.182,25.500 484.283 C 25.775 484.384,26.000 484.272,26.000 484.033 C 26.000 483.795,26.174 483.600,26.387 483.600 C 26.601 483.600,26.668 483.879,26.537 484.220 C 26.345 484.720,26.523 484.797,27.449 484.614 C 28.306 484.445,28.398 484.475,27.809 484.731 C 27.034 485.067,27.036 485.084,27.883 485.537 C 29.021 486.146,30.041 486.161,29.200 485.556 C 28.701 485.197,28.723 485.165,29.333 485.362 C 29.736 485.493,30.276 485.603,30.533 485.606 C 30.805 485.610,30.755 485.767,30.412 485.984 C 29.708 486.430,29.718 486.440,32.000 487.489 C 33.225 488.052,34.015 488.202,34.474 487.958 C 34.844 487.761,35.474 487.611,35.874 487.625 C 36.462 487.646,36.429 487.720,35.700 488.012 C 35.205 488.211,34.800 488.469,34.800 488.584 C 34.800 488.699,109.230 488.793,200.200 488.793 C 295.236 488.793,365.600 488.643,365.600 488.441 C 365.600 488.247,365.915 488.114,366.300 488.144 C 366.701 488.176,366.950 487.966,366.884 487.651 C 366.807 487.290,366.991 487.188,367.420 487.352 C 368.394 487.726,369.108 487.132,368.173 486.725 C 367.602 486.476,367.692 486.445,368.518 486.606 C 369.880 486.872,370.900 486.386,369.795 485.998 C 369.100 485.754,369.109 485.717,369.922 485.505 C 370.482 485.358,370.707 485.427,370.541 485.696 C 370.367 485.977,370.666 486.020,371.440 485.826 C 372.931 485.451,373.111 485.248,372.388 484.752 C 371.941 484.444,372.015 484.408,372.696 484.599 C 373.656 484.869,375.402 483.939,374.897 483.426 C 374.734 483.260,374.870 483.161,375.200 483.205 C 376.704 483.409,378.304 482.300,377.100 481.888 C 376.825 481.794,377.028 481.790,377.551 481.879 C 378.267 482.001,378.445 481.893,378.271 481.441 C 378.107 481.013,378.226 480.912,378.686 481.088 C 379.153 481.268,379.240 481.188,379.000 480.800 C 378.757 480.407,378.849 480.333,379.342 480.523 C 380.133 480.826,382.104 479.292,381.721 478.672 C 381.567 478.423,381.735 478.366,382.151 478.526 C 383.608 479.085,396.000 465.093,396.000 462.889 C 396.000 462.657,396.135 462.407,396.300 462.333 C 396.993 462.025,397.986 459.597,397.850 458.541 C 397.769 457.914,397.783 457.625,397.881 457.900 C 398.208 458.820,398.896 458.413,398.704 457.412 C 398.601 456.869,398.657 456.512,398.830 456.619 C 399.359 456.946,399.720 455.960,399.245 455.485 C 399.000 455.240,398.825 454.581,398.854 454.020 C 398.905 453.079,398.922 453.070,399.082 453.900 C 399.659 456.892,399.915 453.294,399.918 442.159 C 399.921 431.087,399.705 428.085,399.116 431.000 C 398.999 431.580,398.898 431.448,398.750 430.521 C 398.637 429.818,398.693 429.334,398.875 429.446 C 399.329 429.727,399.738 428.547,399.385 427.976 C 399.177 427.639,399.006 427.661,398.751 428.057 C 398.535 428.392,398.497 428.101,398.651 427.300 C 398.813 426.456,398.742 426.000,398.450 426.000 C 398.203 426.000,397.995 425.685,397.988 425.300 C 397.982 424.915,397.362 423.520,396.610 422.200 C 395.859 420.880,394.928 419.170,394.543 418.400 C 394.157 417.630,393.742 416.910,393.621 416.800 C 393.499 416.690,392.878 415.556,392.241 414.280 C 391.512 412.821,390.888 412.034,390.561 412.160 C 390.246 412.281,390.122 412.146,390.248 411.819 C 390.459 411.270,389.465 408.947,387.931 406.400 C 386.922 404.725,385.489 402.131,384.063 399.400 C 383.489 398.300,382.922 397.310,382.804 397.200 C 382.685 397.090,381.935 395.740,381.137 394.200 C 378.768 389.629,378.224 388.790,377.745 388.969 C 377.467 389.074,377.368 388.842,377.492 388.371 C 377.602 387.948,377.402 387.157,377.046 386.614 C 376.304 385.482,374.878 382.949,373.004 379.438 C 371.494 376.607,370.210 374.281,368.457 371.200 C 367.769 369.990,366.800 368.190,366.303 367.200 C 365.807 366.210,365.311 365.310,365.200 365.200 C 365.020 365.020,364.235 363.645,363.029 361.400 C 362.793 360.960,362.510 360.510,362.400 360.400 C 362.289 360.290,361.793 359.390,361.297 358.400 C 360.800 357.410,359.831 355.610,359.143 354.400 C 357.285 351.135,355.948 348.712,355.446 347.703 C 354.958 346.722,354.404 346.510,354.394 347.300 C 354.390 347.633,354.258 347.600,354.000 347.200 C 353.787 346.870,353.612 346.420,353.612 346.200 C 353.612 345.980,353.787 346.070,354.000 346.400 C 354.280 346.834,354.389 346.855,354.394 346.478 C 354.403 345.705,352.291 341.445,351.579 340.800 C 351.458 340.690,351.025 339.880,350.617 339.000 C 350.209 338.120,349.479 336.770,348.996 336.000 C 348.512 335.230,348.075 334.420,348.024 334.200 C 347.973 333.980,347.769 333.603,347.569 333.363 C 347.369 333.122,346.598 331.772,345.855 330.363 C 345.112 328.953,343.761 326.501,342.852 324.912 C 341.943 323.324,341.200 321.839,341.200 321.612 C 341.200 321.386,341.062 321.200,340.894 321.200 C 340.726 321.200,340.273 320.525,339.887 319.700 C 339.500 318.875,338.801 317.570,338.332 316.800 C 337.864 316.030,336.814 314.140,336.000 312.600 C 335.186 311.060,334.070 308.990,333.520 308.000 C 332.970 307.010,331.884 305.030,331.108 303.600 C 330.331 302.170,329.195 300.100,328.584 299.000 C 327.972 297.900,327.276 296.640,327.036 296.200 C 326.796 295.760,326.510 295.310,326.400 295.200 C 326.158 294.958,325.680 294.107,323.657 290.315 C 322.801 288.712,321.601 286.500,320.989 285.400 C 320.377 284.300,319.298 282.320,318.591 281.000 C 316.041 276.235,315.797 275.798,315.579 275.600 C 315.458 275.490,315.008 274.708,314.579 273.861 C 314.151 273.015,313.621 271.978,313.403 271.556 C 313.184 271.134,312.788 270.872,312.523 270.974 C 312.244 271.081,312.128 270.931,312.249 270.618 C 312.449 270.096,312.061 269.298,307.903 261.677 C 306.860 259.765,305.783 257.750,305.511 257.200 C 305.239 256.650,304.913 256.110,304.787 256.000 C 304.661 255.890,304.245 255.170,303.862 254.400 C 303.480 253.630,302.790 252.370,302.330 251.600 C 301.869 250.830,300.863 249.030,300.093 247.600 C 299.323 246.170,298.145 244.010,297.476 242.800 C 296.806 241.590,295.894 239.920,295.449 239.088 C 295.003 238.257,294.426 237.658,294.165 237.758 C 293.872 237.870,293.762 237.665,293.878 237.222 C 294.058 236.536,291.775 231.944,291.116 231.667 C 290.942 231.593,290.800 231.188,290.800 230.767 C 290.800 230.345,290.641 230.000,290.447 230.000 C 290.252 230.000,289.990 229.685,289.864 229.300 C 289.737 228.915,289.026 227.520,288.283 226.200 C 284.610 219.674,282.344 215.532,280.843 212.600 C 280.280 211.500,279.725 210.510,279.610 210.400 C 279.231 210.039,277.554 207.016,277.322 206.277 C 277.190 205.858,276.856 205.646,276.527 205.773 C 276.187 205.903,276.065 205.818,276.224 205.561 C 276.518 205.086,275.260 202.000,274.773 202.000 C 274.604 202.000,274.363 202.225,274.237 202.500 C 274.111 202.775,274.106 202.602,274.226 202.116 C 274.361 201.566,274.035 200.510,273.360 199.316 C 271.595 196.196,271.206 195.422,271.190 195.000 C 271.151 193.989,269.981 192.986,269.558 193.602 C 269.240 194.065,269.204 193.998,269.398 193.308 C 269.647 192.422,267.473 187.155,266.739 186.867 C 266.553 186.793,266.400 154.269,266.400 114.590 C 266.400 67.058,266.264 42.363,266.001 42.201 C 265.737 42.037,265.568 66.254,265.500 114.077 L 265.398 186.200 265.299 113.500 C 265.200 40.834,265.200 40.800,266.015 39.985 C 266.463 39.537,266.705 38.970,266.553 38.724 C 266.378 38.440,266.459 38.389,266.774 38.584 C 267.727 39.173,272.799 33.369,272.191 32.385 C 272.060 32.173,272.254 32.000,272.623 32.000 C 273.120 32.000,273.244 31.745,273.104 31.012 C 273.001 30.469,273.071 30.120,273.261 30.237 C 273.799 30.570,274.140 29.251,273.664 28.677 C 273.199 28.117,272.815 14.760,273.272 15.044 C 273.422 15.137,273.659 15.029,273.798 14.803 C 274.119 14.284,273.645 12.725,273.242 12.974 C 273.076 13.077,272.954 12.764,272.970 12.280 C 272.988 11.750,272.789 11.444,272.470 11.510 C 272.097 11.587,272.021 11.364,272.213 10.760 C 272.363 10.287,272.331 9.788,272.142 9.650 C 271.954 9.513,271.389 8.558,270.887 7.530 C 269.917 5.543,267.577 3.200,266.562 3.200 C 266.227 3.200,266.063 3.022,266.198 2.803 C 266.333 2.585,265.993 1.957,265.443 1.407 C 264.878 0.841,264.336 0.579,264.198 0.803 C 264.063 1.022,263.761 1.200,263.527 1.200 C 263.258 1.200,263.283 0.982,263.596 0.605 C 264.033 0.079,256.700 0.010,200.110 0.010 L 136.130 0.010 135.261 0.935 M255.867 14.532 L 257.400 16.064 257.529 22.289 C 257.713 31.172,256.341 33.600,251.139 33.600 L 249.600 33.600 249.600 115.800 C 249.600 161.010,249.735 198.002,249.900 198.004 C 250.065 198.006,250.555 198.816,250.990 199.804 C 251.424 200.792,251.905 201.600,252.058 201.600 C 252.211 201.600,252.455 202.140,252.600 202.800 C 252.745 203.460,253.029 204.000,253.232 204.000 C 253.434 204.000,253.600 204.345,253.600 204.767 C 253.600 205.188,253.735 205.593,253.900 205.667 C 254.361 205.872,255.600 208.248,255.600 208.928 C 255.600 209.261,255.737 209.593,255.904 209.667 C 256.186 209.791,256.912 211.088,259.563 216.200 C 260.133 217.300,260.721 218.292,260.868 218.404 C 261.016 218.516,261.270 219.140,261.433 219.791 C 261.597 220.441,262.016 221.280,262.365 221.655 C 262.714 222.031,263.539 223.387,264.198 224.669 C 264.857 225.951,265.507 227.090,265.644 227.200 C 265.780 227.310,266.032 227.850,266.203 228.400 C 266.373 228.950,266.938 230.027,267.456 230.793 C 267.975 231.559,268.400 232.399,268.400 232.660 C 268.400 232.920,268.535 233.193,268.700 233.267 C 268.865 233.340,269.650 234.660,270.444 236.200 C 272.784 240.738,273.383 241.792,273.700 241.933 C 273.865 242.007,274.000 242.412,274.000 242.833 C 274.000 243.255,274.166 243.600,274.368 243.600 C 274.571 243.600,274.855 244.140,275.000 244.800 C 275.145 245.460,275.399 246.000,275.565 246.000 C 275.731 246.000,276.392 247.035,277.033 248.300 C 277.675 249.565,278.335 250.660,278.500 250.733 C 278.665 250.807,278.800 251.212,278.800 251.633 C 278.800 252.055,278.960 252.400,279.157 252.400 C 279.353 252.400,279.630 252.865,279.773 253.434 C 279.916 254.003,280.370 254.831,280.783 255.274 C 281.195 255.717,281.652 256.554,281.798 257.136 C 281.944 257.717,282.184 258.284,282.332 258.396 C 282.598 258.598,284.001 261.141,285.976 265.000 C 286.539 266.100,287.099 267.090,287.221 267.200 C 287.577 267.522,288.800 270.280,288.800 270.760 C 288.800 271.002,288.941 271.200,289.114 271.200 C 289.287 271.200,289.962 272.235,290.614 273.500 C 291.266 274.765,291.890 275.890,292.000 276.000 C 292.110 276.110,293.010 277.820,294.000 279.800 C 294.990 281.780,295.935 283.460,296.100 283.533 C 296.265 283.607,296.400 283.922,296.400 284.233 C 296.400 284.545,296.572 284.800,296.782 284.800 C 296.992 284.800,297.282 285.430,297.426 286.200 C 297.571 286.970,297.827 287.600,297.995 287.600 C 298.164 287.600,298.819 288.635,299.451 289.900 C 300.083 291.165,300.699 292.290,300.821 292.400 C 300.942 292.510,301.374 293.320,301.781 294.200 C 302.188 295.080,302.944 296.427,303.460 297.193 C 303.977 297.959,304.400 298.904,304.400 299.293 C 304.400 299.682,304.580 300.000,304.800 300.000 C 305.020 300.000,305.200 300.255,305.200 300.567 C 305.200 300.878,305.335 301.193,305.500 301.267 C 305.665 301.340,306.295 302.345,306.900 303.500 C 307.505 304.655,308.495 306.545,309.100 307.700 C 309.705 308.855,310.321 309.892,310.468 310.004 C 310.616 310.116,310.869 310.746,311.030 311.404 C 311.191 312.062,311.449 312.690,311.602 312.800 C 312.171 313.209,314.000 316.406,314.000 316.992 C 314.000 317.326,314.180 317.600,314.400 317.600 C 314.620 317.600,314.800 317.870,314.800 318.200 C 314.800 318.530,314.960 318.800,315.157 318.800 C 315.353 318.800,315.632 319.273,315.777 319.851 C 315.922 320.430,316.482 321.552,317.021 322.344 C 317.559 323.137,318.000 324.014,318.000 324.293 C 318.000 324.572,318.180 324.800,318.400 324.800 C 318.620 324.800,318.800 325.145,318.800 325.567 C 318.800 325.988,318.935 326.393,319.100 326.467 C 319.265 326.540,319.861 327.500,320.425 328.600 C 322.446 332.540,323.804 335.003,324.068 335.204 C 324.216 335.316,324.460 335.901,324.612 336.504 C 324.763 337.107,325.020 337.600,325.183 337.600 C 325.345 337.600,325.816 338.365,326.228 339.300 C 326.641 340.235,327.076 341.090,327.195 341.200 C 327.315 341.310,328.060 342.660,328.850 344.200 C 330.853 348.101,331.763 349.766,332.021 350.000 C 332.377 350.323,333.600 353.081,333.600 353.560 C 333.600 353.802,333.735 354.001,333.900 354.001 C 334.065 354.002,334.740 355.037,335.400 356.301 C 336.060 357.566,336.699 358.690,336.821 358.800 C 337.177 359.122,338.400 361.880,338.400 362.360 C 338.400 362.602,338.562 362.800,338.760 362.800 C 338.959 362.800,339.454 363.609,339.860 364.599 C 340.267 365.588,340.735 366.398,340.900 366.399 C 341.065 366.399,341.200 366.670,341.200 367.000 C 341.200 367.330,341.380 367.600,341.600 367.600 C 341.820 367.600,342.000 367.850,342.000 368.156 C 342.000 368.461,342.720 369.943,343.600 371.449 C 344.480 372.955,345.200 374.415,345.200 374.694 C 345.200 374.972,345.338 375.200,345.506 375.200 C 345.827 375.200,347.200 378.120,347.200 378.803 C 347.200 379.021,347.358 379.200,347.551 379.200 C 347.744 379.200,348.419 380.235,349.051 381.500 C 349.683 382.765,350.299 383.890,350.421 384.000 C 350.542 384.110,350.974 384.920,351.381 385.800 C 351.788 386.680,352.544 388.027,353.060 388.793 C 353.577 389.559,354.000 390.504,354.000 390.893 C 354.000 391.282,354.180 391.600,354.400 391.600 C 354.620 391.600,354.800 391.870,354.800 392.200 C 354.800 392.530,354.966 392.800,355.168 392.800 C 355.371 392.800,355.663 393.385,355.818 394.100 C 355.974 394.815,356.231 395.490,356.390 395.600 C 356.943 395.981,358.800 399.187,358.800 399.759 C 358.800 400.075,358.935 400.393,359.100 400.467 C 359.573 400.677,360.800 403.056,360.800 403.762 C 360.800 404.113,360.959 404.400,361.152 404.400 C 361.346 404.400,362.019 405.435,362.648 406.700 C 363.277 407.965,363.888 409.090,364.006 409.200 C 364.123 409.310,364.734 410.390,365.364 411.600 C 365.993 412.810,366.753 414.250,367.052 414.800 C 367.351 415.350,367.596 416.115,367.598 416.500 C 367.599 416.885,367.780 417.200,368.000 417.200 C 368.220 417.200,368.400 417.560,368.400 418.000 C 368.400 418.440,368.578 418.800,368.795 418.800 C 369.013 418.800,369.306 419.520,369.446 420.400 C 369.587 421.280,369.859 422.000,370.051 422.000 C 370.243 422.000,370.400 422.439,370.400 422.976 C 370.400 423.513,370.560 424.052,370.756 424.173 C 370.951 424.294,371.212 424.979,371.334 425.696 C 371.456 426.413,371.735 427.900,371.954 429.000 C 372.475 431.615,372.477 440.104,371.958 442.400 C 371.734 443.390,371.451 444.695,371.330 445.300 C 371.209 445.905,370.950 446.400,370.755 446.400 C 370.560 446.400,370.400 446.850,370.400 447.400 C 370.400 447.950,370.234 448.400,370.032 448.400 C 369.829 448.400,369.550 448.916,369.412 449.546 C 369.273 450.176,368.845 451.031,368.460 451.446 C 368.075 451.861,367.635 452.470,367.482 452.800 C 367.330 453.130,366.979 453.751,366.703 454.181 C 366.023 455.236,360.026 461.200,359.644 461.200 C 359.476 461.200,358.917 461.650,358.400 462.200 C 357.883 462.750,357.132 463.200,356.730 463.200 C 356.329 463.200,356.000 463.352,356.000 463.537 C 356.000 463.722,355.325 464.217,354.500 464.637 C 353.675 465.057,352.910 465.499,352.800 465.620 C 352.487 465.964,348.025 468.000,347.584 468.000 C 347.367 468.000,346.832 468.180,346.395 468.400 C 345.958 468.620,345.246 468.978,344.814 469.195 C 344.381 469.412,343.026 469.707,341.802 469.851 C 340.579 469.995,339.482 470.267,339.365 470.456 C 339.248 470.645,338.184 470.800,337.000 470.800 C 335.816 470.800,334.736 470.980,334.600 471.200 C 334.436 471.465,289.204 471.600,200.200 471.600 C 111.196 471.600,65.964 471.465,65.800 471.200 C 65.664 470.980,64.663 470.800,63.576 470.800 C 62.489 470.800,61.600 470.645,61.600 470.456 C 61.600 470.266,60.714 470.006,59.631 469.878 C 58.547 469.750,57.332 469.470,56.931 469.256 C 56.529 469.042,55.570 468.606,54.800 468.287 C 51.330 466.849,50.800 466.586,50.800 466.302 C 50.800 466.136,50.440 466.000,50.000 466.000 C 49.560 466.000,49.200 465.840,49.200 465.643 C 49.200 465.447,48.750 465.174,48.200 465.036 C 47.650 464.898,47.200 464.608,47.200 464.392 C 47.200 464.177,46.930 464.000,46.600 464.000 C 46.270 464.000,46.000 463.832,46.000 463.627 C 46.000 463.422,45.601 463.127,45.114 462.973 C 44.627 462.818,43.640 462.086,42.921 461.346 C 42.202 460.606,41.463 460.000,41.279 460.000 C 41.095 460.000,40.558 459.595,40.085 459.100 C 39.612 458.605,38.770 457.754,38.213 457.208 C 37.656 456.663,37.200 456.054,37.200 455.855 C 37.200 455.657,36.865 455.203,36.456 454.847 C 35.385 453.915,32.400 449.564,32.400 448.934 C 32.400 448.640,32.264 448.400,32.098 448.400 C 31.703 448.400,30.888 446.542,30.558 444.889 C 30.414 444.171,30.140 443.486,29.948 443.368 C 29.757 443.250,29.600 442.659,29.600 442.056 C 29.600 441.453,29.375 440.735,29.100 440.460 C 28.391 439.751,28.391 426.649,29.100 425.940 C 29.375 425.665,29.600 424.846,29.600 424.120 C 29.600 423.394,29.760 422.800,29.955 422.800 C 30.150 422.800,30.430 421.994,30.578 421.009 C 30.725 420.024,31.016 419.114,31.223 418.986 C 31.430 418.858,31.600 418.403,31.600 417.976 C 31.600 417.549,31.780 417.200,32.000 417.200 C 32.220 417.200,32.400 417.002,32.400 416.760 C 32.400 416.255,33.638 413.499,34.000 413.200 C 34.349 412.911,35.600 410.153,35.600 409.673 C 35.600 409.449,35.735 409.207,35.900 409.133 C 36.065 409.060,36.716 407.965,37.348 406.700 C 37.979 405.435,38.654 404.400,38.848 404.400 C 39.041 404.400,39.200 404.221,39.200 404.003 C 39.200 403.320,40.573 400.400,40.894 400.400 C 41.062 400.400,41.200 400.040,41.200 399.600 C 41.200 399.160,41.360 398.800,41.557 398.800 C 41.753 398.800,42.026 398.350,42.164 397.800 C 42.302 397.250,42.592 396.800,42.808 396.800 C 43.023 396.800,43.200 396.530,43.200 396.200 C 43.200 395.870,43.380 395.600,43.600 395.600 C 43.820 395.600,44.000 395.313,44.000 394.962 C 44.000 394.256,45.227 391.877,45.700 391.667 C 45.865 391.593,46.000 391.293,46.000 390.999 C 46.000 390.311,47.308 388.006,47.700 388.003 C 47.865 388.001,48.000 387.730,48.000 387.400 C 48.000 387.070,48.160 386.800,48.355 386.800 C 48.551 386.800,48.829 386.170,48.974 385.400 C 49.118 384.630,49.408 384.000,49.618 384.000 C 49.828 384.000,50.000 383.730,50.000 383.400 C 50.000 383.070,50.180 382.800,50.400 382.800 C 50.620 382.800,50.800 382.462,50.800 382.049 C 50.800 381.636,51.070 381.074,51.400 380.800 C 51.730 380.526,52.000 380.054,52.000 379.751 C 52.000 379.448,52.180 379.200,52.400 379.200 C 52.620 379.200,52.800 379.002,52.800 378.760 C 52.800 378.267,54.032 375.509,54.390 375.200 C 54.518 375.090,54.959 374.235,55.372 373.300 C 55.784 372.365,56.274 371.600,56.461 371.600 C 56.647 371.600,56.800 371.330,56.800 371.000 C 56.800 370.670,56.980 370.400,57.200 370.400 C 57.420 370.400,57.600 370.202,57.600 369.960 C 57.600 369.480,58.823 366.722,59.179 366.400 C 59.301 366.290,59.758 365.480,60.196 364.600 C 60.634 363.720,61.084 362.910,61.196 362.800 C 61.653 362.351,62.800 359.896,62.800 359.368 C 62.800 359.055,62.980 358.800,63.200 358.800 C 63.420 358.800,63.600 358.530,63.600 358.200 C 63.600 357.870,63.735 357.598,63.900 357.596 C 64.065 357.594,64.555 356.784,64.990 355.796 C 65.424 354.808,65.905 354.000,66.058 354.000 C 66.211 354.000,66.455 353.460,66.600 352.800 C 66.745 352.140,67.029 351.600,67.232 351.600 C 67.434 351.600,67.600 351.240,67.600 350.800 C 67.600 350.360,67.760 350.000,67.957 350.000 C 68.153 350.000,68.416 349.591,68.541 349.092 C 68.666 348.593,69.136 347.790,69.585 347.309 C 70.033 346.827,70.400 346.156,70.400 345.817 C 70.400 345.478,70.580 345.200,70.800 345.200 C 71.020 345.200,71.200 345.002,71.200 344.760 C 71.200 344.281,72.423 341.523,72.779 341.200 C 73.033 340.970,73.905 339.377,75.956 335.400 C 76.750 333.860,77.535 332.540,77.700 332.467 C 77.865 332.393,78.000 332.091,78.000 331.795 C 78.000 331.499,78.232 331.019,78.515 330.729 C 79.107 330.121,80.400 327.477,80.400 326.873 C 80.400 326.649,80.535 326.407,80.700 326.333 C 80.865 326.260,81.516 325.165,82.148 323.900 C 82.779 322.635,83.454 321.600,83.648 321.600 C 83.841 321.600,84.000 321.313,84.000 320.962 C 84.000 320.256,85.227 317.877,85.700 317.667 C 85.865 317.593,86.000 317.188,86.000 316.767 C 86.000 316.345,86.160 316.000,86.357 316.000 C 86.553 316.000,86.816 315.591,86.941 315.092 C 87.066 314.593,87.536 313.790,87.985 313.309 C 88.433 312.827,88.800 312.229,88.800 311.978 C 88.800 311.413,90.092 309.048,90.500 308.867 C 90.665 308.793,90.800 308.493,90.800 308.199 C 90.800 307.511,92.108 305.206,92.500 305.203 C 92.665 305.201,92.800 304.930,92.800 304.600 C 92.800 304.270,92.960 304.000,93.155 304.000 C 93.351 304.000,93.629 303.370,93.774 302.600 C 93.918 301.830,94.208 301.200,94.418 301.200 C 94.628 301.200,94.800 300.930,94.800 300.600 C 94.800 300.270,94.980 300.000,95.200 300.000 C 95.420 300.000,95.600 299.745,95.600 299.432 C 95.600 298.719,96.898 296.406,97.300 296.403 C 97.465 296.401,97.600 296.202,97.600 295.960 C 97.600 295.438,98.848 292.686,99.215 292.400 C 99.356 292.290,99.805 291.435,100.213 290.500 C 100.620 289.565,101.099 288.800,101.277 288.800 C 101.455 288.800,101.600 288.530,101.600 288.200 C 101.600 287.870,101.780 287.600,102.000 287.600 C 102.220 287.600,102.400 287.402,102.400 287.160 C 102.400 286.667,103.632 283.909,103.990 283.600 C 104.118 283.490,104.559 282.635,104.972 281.700 C 105.384 280.765,105.874 280.000,106.061 280.000 C 106.247 280.000,106.400 279.730,106.400 279.400 C 106.400 279.070,106.572 278.800,106.782 278.800 C 106.992 278.800,107.282 278.170,107.426 277.400 C 107.571 276.630,107.849 276.000,108.045 276.000 C 108.240 276.000,108.400 275.730,108.400 275.400 C 108.400 275.070,108.535 274.798,108.700 274.796 C 108.865 274.794,109.355 273.984,109.790 272.996 C 110.224 272.008,110.719 271.200,110.890 271.200 C 111.060 271.200,111.200 271.002,111.200 270.760 C 111.200 270.281,112.423 267.523,112.779 267.200 C 113.009 266.991,114.207 264.854,114.963 263.303 C 115.203 262.810,115.535 262.405,115.700 262.403 C 115.865 262.401,116.000 262.202,116.000 261.960 C 116.000 261.481,117.223 258.723,117.579 258.400 C 117.837 258.166,118.747 256.501,120.750 252.600 C 121.540 251.060,122.283 249.710,122.400 249.600 C 122.516 249.490,122.969 248.637,123.406 247.705 C 123.843 246.772,124.321 246.007,124.468 246.005 C 124.616 246.002,124.855 245.460,125.000 244.800 C 125.145 244.140,125.429 243.600,125.632 243.600 C 125.834 243.600,126.000 243.240,126.000 242.800 C 126.000 242.360,126.160 242.000,126.357 242.000 C 126.553 242.000,126.816 241.591,126.941 241.092 C 127.066 240.593,127.536 239.790,127.985 239.309 C 128.433 238.827,128.800 238.156,128.800 237.817 C 128.800 237.478,128.966 237.200,129.168 237.200 C 129.371 237.200,129.655 236.660,129.800 236.000 C 129.945 235.340,130.229 234.800,130.432 234.800 C 130.634 234.800,130.800 234.440,130.800 234.000 C 130.800 233.560,130.960 233.200,131.157 233.200 C 131.353 233.200,131.616 232.791,131.741 232.292 C 131.866 231.793,132.336 230.990,132.785 230.509 C 133.233 230.027,133.600 229.429,133.600 229.178 C 133.600 228.613,134.892 226.248,135.300 226.067 C 135.465 225.993,135.600 225.588,135.600 225.167 C 135.600 224.745,135.760 224.400,135.957 224.400 C 136.153 224.400,136.416 223.991,136.541 223.492 C 136.666 222.993,137.107 222.222,137.519 221.779 C 137.932 221.336,138.403 220.441,138.567 219.791 C 138.730 219.140,138.985 218.516,139.134 218.404 C 139.283 218.292,139.936 217.165,140.587 215.900 C 141.237 214.635,141.911 213.600,142.084 213.600 C 142.258 213.600,142.400 213.421,142.400 213.203 C 142.400 212.520,143.773 209.600,144.094 209.600 C 144.262 209.600,144.400 209.240,144.400 208.800 C 144.400 208.360,144.566 208.000,144.768 208.000 C 144.971 208.000,145.255 207.460,145.400 206.800 C 145.545 206.140,145.829 205.600,146.032 205.600 C 146.234 205.600,146.400 205.240,146.400 204.800 C 146.400 204.360,146.541 204.000,146.712 204.000 C 146.884 204.000,147.237 203.505,147.497 202.900 C 147.756 202.295,148.516 200.830,149.184 199.645 L 150.400 197.489 150.400 115.545 L 150.400 33.600 148.400 33.600 C 147.300 33.600,146.400 33.420,146.400 33.200 C 146.400 32.980,146.158 32.800,145.861 32.800 C 144.615 32.800,142.400 29.978,142.400 28.391 C 142.400 27.824,142.207 27.167,141.971 26.931 C 140.415 25.375,142.716 14.000,144.586 14.000 C 144.735 14.000,145.129 13.728,145.461 13.396 C 145.995 12.862,152.352 12.804,200.200 12.896 L 254.333 13.000 255.867 14.532 M125.600 22.000 C 125.600 26.000,125.750 28.400,126.000 28.400 C 126.250 28.400,126.400 26.000,126.400 22.000 C 126.400 18.000,126.250 15.600,126.000 15.600 C 125.750 15.600,125.600 18.000,125.600 22.000 M273.600 21.800 C 273.600 25.133,273.753 27.200,274.000 27.200 C 274.247 27.200,274.400 25.133,274.400 21.800 C 274.400 18.467,274.247 16.400,274.000 16.400 C 273.753 16.400,273.600 18.467,273.600 21.800 M149.903 115.700 C 149.850 160.635,149.760 187.050,149.704 174.400 C 149.433 114.020,149.431 34.000,149.700 34.000 C 149.865 34.000,149.956 70.765,149.903 115.700 M223.600 35.200 C 223.600 35.420,223.246 35.600,222.814 35.600 C 221.872 35.600,219.916 37.429,219.035 39.133 C 218.012 41.111,218.070 181.511,219.094 183.114 C 220.149 184.765,221.866 186.400,222.546 186.400 C 222.880 186.400,223.264 186.580,223.400 186.800 C 223.721 187.319,225.879 187.319,226.200 186.800 C 226.336 186.580,226.719 186.400,227.052 186.400 C 227.802 186.400,228.859 185.392,228.493 185.026 C 228.345 184.879,228.532 184.876,228.909 185.020 C 229.369 185.197,229.683 185.040,229.867 184.542 C 230.018 184.134,230.335 183.672,230.571 183.515 C 230.874 183.313,231.000 162.011,231.000 111.100 L 231.000 38.971 229.331 37.285 C 228.414 36.358,227.289 35.600,226.831 35.600 C 226.374 35.600,226.000 35.420,226.000 35.200 C 226.000 34.980,225.460 34.800,224.800 34.800 C 224.140 34.800,223.600 34.980,223.600 35.200 M134.700 148.500 C 134.643 168.355,134.596 152.110,134.596 112.400 C 134.596 72.690,134.643 56.445,134.700 76.300 C 134.757 96.155,134.757 128.645,134.700 148.500 M230.700 145.868 C 230.643 165.191,230.596 149.500,230.596 111.000 C 230.596 72.500,230.643 56.691,230.700 75.868 C 230.757 95.046,230.757 126.546,230.700 145.868 M244.419 231.580 C 244.100 231.782,242.975 232.066,241.919 232.211 C 240.864 232.356,240.000 232.596,240.000 232.743 C 240.000 233.037,237.036 234.400,236.397 234.400 C 236.179 234.400,236.000 234.580,236.000 234.800 C 236.000 235.020,235.640 235.200,235.200 235.200 C 234.760 235.200,234.400 235.360,234.400 235.557 C 234.400 235.753,233.907 236.037,233.304 236.188 C 232.701 236.340,232.116 236.584,232.004 236.732 C 231.725 237.099,230.474 237.868,228.800 238.702 C 228.030 239.086,227.137 239.650,226.816 239.956 C 226.495 240.261,225.670 240.746,224.984 241.032 C 224.298 241.319,223.518 241.817,223.252 242.138 C 222.985 242.459,222.290 242.841,221.707 242.988 C 221.124 243.134,220.367 243.557,220.024 243.928 C 219.681 244.298,218.455 245.096,217.300 245.701 C 216.145 246.305,214.255 247.295,213.100 247.900 C 211.945 248.505,210.942 249.129,210.871 249.287 C 210.800 249.445,210.125 249.690,209.371 249.832 C 208.617 249.973,208.000 250.249,208.000 250.445 C 208.000 250.640,207.730 250.800,207.400 250.800 C 207.070 250.800,206.800 250.980,206.800 251.200 C 206.800 251.420,206.451 251.600,206.024 251.600 C 205.597 251.600,205.149 251.760,205.028 251.955 C 204.907 252.150,204.177 252.428,203.404 252.573 C 202.632 252.718,202.000 253.008,202.000 253.218 C 202.000 253.428,201.651 253.600,201.224 253.600 C 200.797 253.600,200.342 253.770,200.214 253.977 C 200.086 254.184,199.176 254.475,198.191 254.622 C 197.206 254.770,196.400 255.050,196.400 255.245 C 196.400 255.440,195.961 255.600,195.424 255.600 C 194.887 255.600,194.347 255.762,194.224 255.961 C 194.102 256.159,192.921 256.447,191.600 256.600 C 190.279 256.753,189.098 257.041,188.976 257.239 C 188.853 257.438,188.058 257.600,187.210 257.600 C 186.331 257.600,185.595 257.815,185.500 258.100 C 185.371 258.486,182.368 258.600,172.287 258.600 C 162.383 258.600,159.120 258.480,158.740 258.100 C 158.465 257.825,157.586 257.600,156.787 257.600 C 155.987 257.600,155.199 257.465,155.034 257.301 C 154.869 257.136,153.534 256.771,152.067 256.490 C 147.672 255.649,147.200 255.523,147.200 255.192 C 147.200 255.018,146.300 254.751,145.200 254.600 C 144.100 254.449,143.200 254.162,143.200 253.962 C 143.200 253.763,142.765 253.600,142.233 253.600 C 141.702 253.600,141.173 253.375,141.058 253.100 C 140.912 252.749,140.668 252.839,140.239 253.400 C 139.902 253.840,139.441 254.417,139.214 254.683 C 138.986 254.949,138.800 255.371,138.800 255.621 C 138.800 256.187,137.508 258.552,137.100 258.733 C 136.935 258.807,136.800 259.212,136.800 259.633 C 136.800 260.055,136.640 260.400,136.443 260.400 C 136.247 260.400,135.974 260.850,135.836 261.400 C 135.698 261.950,135.408 262.400,135.192 262.400 C 134.977 262.400,134.800 262.670,134.800 263.000 C 134.800 263.330,134.620 263.600,134.400 263.600 C 134.180 263.600,134.000 263.887,134.000 264.238 C 134.000 264.814,132.907 267.102,132.394 267.600 C 132.281 267.710,131.831 268.563,131.394 269.495 C 130.957 270.428,130.465 271.193,130.300 271.195 C 130.135 271.198,130.000 271.470,130.000 271.800 C 130.000 272.130,129.840 272.400,129.645 272.400 C 129.449 272.400,129.171 273.030,129.026 273.800 C 128.882 274.570,128.592 275.200,128.382 275.200 C 128.172 275.200,128.000 275.470,128.000 275.800 C 128.000 276.130,127.865 276.402,127.700 276.404 C 127.535 276.406,127.045 277.216,126.610 278.204 C 126.176 279.192,125.721 280.000,125.598 280.000 C 125.476 280.000,125.027 280.900,124.600 282.000 C 124.173 283.100,123.684 284.000,123.512 284.000 C 123.340 284.000,123.200 284.270,123.200 284.600 C 123.200 284.930,123.047 285.200,122.860 285.200 C 122.673 285.200,122.187 286.010,121.778 287.000 C 121.370 287.990,120.912 288.800,120.761 288.800 C 120.610 288.800,120.368 289.273,120.223 289.851 C 120.078 290.430,119.518 291.552,118.979 292.344 C 118.441 293.137,118.000 294.014,118.000 294.293 C 118.000 294.572,117.820 294.800,117.600 294.800 C 117.380 294.800,117.200 295.160,117.200 295.600 C 117.200 296.040,117.020 296.400,116.800 296.400 C 116.580 296.400,116.400 296.670,116.400 297.000 C 116.400 297.330,116.265 297.601,116.100 297.601 C 115.935 297.602,115.467 298.412,115.060 299.401 C 114.654 300.391,114.159 301.200,113.960 301.200 C 113.762 301.200,113.600 301.398,113.600 301.640 C 113.600 302.119,112.377 304.877,112.021 305.200 C 111.791 305.409,110.593 307.546,109.837 309.097 C 109.597 309.590,109.279 309.995,109.132 309.997 C 108.984 309.999,108.745 310.540,108.600 311.200 C 108.455 311.860,108.171 312.400,107.968 312.400 C 107.766 312.400,107.600 312.760,107.600 313.200 C 107.600 313.640,107.440 314.000,107.243 314.000 C 107.047 314.000,106.784 314.409,106.659 314.908 C 106.534 315.407,106.093 316.178,105.681 316.621 C 105.268 317.064,104.797 317.959,104.633 318.609 C 104.470 319.260,104.216 319.884,104.068 319.996 C 103.921 320.108,103.282 321.190,102.649 322.400 C 102.016 323.610,101.377 324.690,101.228 324.800 C 100.855 325.076,99.600 327.822,99.600 328.360 C 99.600 328.602,99.462 328.800,99.294 328.800 C 99.126 328.800,98.675 329.475,98.293 330.300 C 97.583 331.828,96.769 333.240,96.389 333.600 C 96.273 333.710,95.828 334.610,95.400 335.600 C 94.972 336.590,94.525 337.490,94.407 337.600 C 94.289 337.710,93.834 338.520,93.396 339.400 C 92.958 340.280,92.465 341.060,92.300 341.133 C 92.135 341.207,92.000 341.522,92.000 341.833 C 92.000 342.145,91.820 342.400,91.600 342.400 C 91.380 342.400,91.200 342.687,91.200 343.038 C 91.200 343.614,90.107 345.902,89.594 346.400 C 89.481 346.510,89.031 347.363,88.594 348.295 C 88.157 349.228,87.665 349.993,87.500 349.995 C 87.335 349.998,87.200 350.270,87.200 350.600 C 87.200 350.930,87.020 351.200,86.800 351.200 C 86.580 351.200,86.400 351.518,86.400 351.907 C 86.400 352.296,85.977 353.241,85.460 354.007 C 84.944 354.773,84.188 356.120,83.781 357.000 C 83.374 357.880,82.942 358.690,82.821 358.800 C 82.699 358.910,82.083 360.035,81.451 361.300 C 80.819 362.565,80.144 363.600,79.951 363.600 C 79.758 363.600,79.600 363.798,79.600 364.040 C 79.600 364.533,78.368 367.291,78.010 367.600 C 77.882 367.710,77.441 368.565,77.028 369.500 C 76.616 370.435,76.140 371.200,75.971 371.200 C 75.802 371.200,75.545 371.740,75.400 372.400 C 75.255 373.060,75.015 373.600,74.866 373.600 C 74.717 373.600,74.342 374.185,74.032 374.900 C 73.722 375.615,72.890 377.114,72.183 378.232 C 71.476 379.349,70.761 380.699,70.595 381.232 C 70.428 381.764,70.180 382.290,70.042 382.400 C 69.904 382.510,69.277 383.635,68.648 384.900 C 68.019 386.165,67.346 387.200,67.152 387.200 C 66.959 387.200,66.800 387.487,66.800 387.838 C 66.800 388.544,65.573 390.923,65.100 391.133 C 64.935 391.207,64.800 391.612,64.800 392.033 C 64.800 392.455,64.640 392.800,64.443 392.800 C 64.247 392.800,63.974 393.250,63.836 393.800 C 63.698 394.350,63.408 394.800,63.192 394.800 C 62.977 394.800,62.800 395.070,62.800 395.400 C 62.800 395.730,62.620 396.000,62.400 396.000 C 62.180 396.000,62.000 396.287,62.000 396.638 C 62.000 397.214,60.907 399.502,60.394 400.000 C 60.281 400.110,59.831 400.963,59.394 401.895 C 58.957 402.828,58.465 403.593,58.300 403.595 C 58.135 403.598,58.000 403.870,58.000 404.200 C 58.000 404.530,57.840 404.800,57.645 404.800 C 57.449 404.800,57.171 405.430,57.026 406.200 C 56.882 406.970,56.592 407.600,56.382 407.600 C 56.172 407.600,56.000 407.870,56.000 408.200 C 56.000 408.530,55.840 408.800,55.645 408.800 C 55.449 408.800,55.171 409.430,55.026 410.200 C 54.882 410.970,54.592 411.600,54.382 411.600 C 54.172 411.600,54.000 412.050,54.000 412.600 C 54.000 413.150,53.850 413.600,53.667 413.600 C 52.717 413.600,51.636 423.149,52.064 427.758 C 52.390 431.261,53.188 434.800,53.653 434.800 C 53.844 434.800,54.000 435.022,54.000 435.294 C 54.000 436.081,56.113 440.104,57.100 441.196 C 57.595 441.744,58.000 442.315,58.000 442.466 C 58.000 442.859,63.695 448.400,64.099 448.400 C 64.285 448.400,64.886 448.850,65.436 449.400 C 65.986 449.950,66.698 450.400,67.018 450.400 C 67.338 450.400,67.600 450.580,67.600 450.800 C 67.600 451.020,67.870 451.200,68.200 451.200 C 68.530 451.200,68.800 451.377,68.800 451.592 C 68.800 451.808,69.250 452.098,69.800 452.236 C 70.350 452.374,70.800 452.647,70.800 452.843 C 70.800 453.040,71.160 453.200,71.600 453.200 C 72.040 453.200,72.400 453.372,72.400 453.582 C 72.400 453.792,73.032 454.082,73.804 454.227 C 74.577 454.372,75.307 454.650,75.428 454.845 C 75.549 455.040,76.087 455.200,76.624 455.200 C 77.161 455.200,77.600 455.352,77.600 455.539 C 77.600 457.770,326.361 457.823,328.000 455.592 C 328.110 455.442,328.650 455.213,329.200 455.083 C 331.186 454.615,333.804 453.809,334.000 453.607 C 334.433 453.159,336.751 452.000,337.215 452.000 C 337.485 452.000,337.997 451.666,338.353 451.257 C 338.709 450.849,339.405 450.387,339.900 450.230 C 340.395 450.074,340.800 449.778,340.800 449.573 C 340.800 449.368,340.985 449.200,341.211 449.200 C 342.118 449.200,348.800 442.531,348.800 441.626 C 348.800 441.391,348.945 441.200,349.123 441.200 C 349.301 441.200,349.780 440.435,350.187 439.500 C 350.595 438.565,351.050 437.710,351.199 437.600 C 351.504 437.374,352.371 434.410,352.662 432.600 C 352.768 431.940,353.036 431.026,353.259 430.568 C 353.722 429.614,353.485 423.981,352.857 421.000 C 352.625 419.900,352.218 417.965,351.951 416.700 C 351.684 415.435,351.316 414.400,351.133 414.400 C 350.950 414.400,350.800 414.151,350.800 413.846 C 350.800 413.541,350.531 412.776,350.202 412.146 C 349.874 411.516,349.604 410.685,349.602 410.300 C 349.601 409.915,349.462 409.600,349.294 409.600 C 348.982 409.600,347.600 406.689,347.600 406.031 C 347.600 405.830,347.465 405.607,347.300 405.533 C 347.135 405.460,346.350 404.140,345.556 402.600 C 343.216 398.062,342.617 397.008,342.300 396.867 C 342.135 396.793,342.000 396.388,342.000 395.967 C 342.000 395.545,341.834 395.200,341.632 395.200 C 341.429 395.200,341.145 394.660,341.000 394.000 C 340.855 393.340,340.571 392.800,340.368 392.800 C 340.166 392.800,340.000 392.455,340.000 392.033 C 340.000 391.612,339.865 391.207,339.700 391.133 C 339.227 390.923,338.000 388.544,338.000 387.838 C 338.000 387.487,337.820 387.200,337.600 387.200 C 337.380 387.200,337.200 386.930,337.200 386.600 C 337.200 386.270,337.047 386.000,336.860 386.000 C 336.673 386.000,336.187 385.190,335.778 384.200 C 335.370 383.210,334.893 382.400,334.718 382.400 C 334.543 382.400,334.400 382.202,334.400 381.960 C 334.400 381.455,333.162 378.699,332.800 378.400 C 332.438 378.101,331.200 375.345,331.200 374.840 C 331.200 374.598,331.065 374.398,330.900 374.395 C 330.735 374.393,330.243 373.628,329.806 372.695 C 329.369 371.763,328.919 370.910,328.806 370.800 C 328.293 370.302,327.200 368.014,327.200 367.438 C 327.200 367.087,327.020 366.800,326.800 366.800 C 326.580 366.800,326.400 366.530,326.400 366.200 C 326.400 365.870,326.240 365.600,326.045 365.600 C 325.849 365.600,325.571 364.970,325.426 364.200 C 325.282 363.430,324.992 362.800,324.782 362.800 C 324.572 362.800,324.400 362.530,324.400 362.200 C 324.400 361.870,324.220 361.600,324.000 361.600 C 323.780 361.600,323.600 361.240,323.600 360.800 C 323.600 360.360,323.432 360.000,323.227 360.000 C 323.022 360.000,322.728 359.595,322.573 359.100 C 322.419 358.605,322.176 358.110,322.035 358.000 C 321.894 357.890,321.428 356.990,321.000 356.000 C 320.572 355.010,320.118 354.110,319.990 354.000 C 319.645 353.702,318.400 350.941,318.400 350.473 C 318.400 350.249,318.265 350.007,318.100 349.933 C 317.819 349.809,316.934 348.230,314.435 343.400 C 313.866 342.300,313.265 341.340,313.100 341.267 C 312.935 341.193,312.800 340.788,312.800 340.367 C 312.800 339.945,312.634 339.600,312.432 339.600 C 312.229 339.600,311.945 339.060,311.800 338.400 C 311.655 337.740,311.371 337.200,311.168 337.200 C 310.966 337.200,310.800 336.840,310.800 336.400 C 310.800 335.960,310.665 335.598,310.500 335.595 C 310.335 335.593,309.843 334.828,309.406 333.895 C 308.969 332.963,308.512 332.110,308.389 332.000 C 308.266 331.890,307.633 330.720,306.983 329.400 C 306.332 328.080,305.671 326.942,305.513 326.871 C 305.355 326.800,305.110 326.125,304.968 325.371 C 304.827 324.617,304.551 324.000,304.355 324.000 C 304.160 324.000,304.000 323.730,304.000 323.400 C 304.000 323.070,303.864 322.800,303.698 322.800 C 303.531 322.800,303.147 322.215,302.843 321.500 C 302.540 320.785,301.776 319.342,301.146 318.294 C 300.516 317.246,300.000 316.121,300.000 315.794 C 300.000 315.467,299.862 315.200,299.694 315.200 C 299.373 315.200,298.000 312.280,298.000 311.597 C 298.000 311.379,297.820 311.200,297.600 311.200 C 297.380 311.200,297.200 310.930,297.200 310.600 C 297.200 310.270,297.020 310.000,296.800 310.000 C 296.580 310.000,296.400 309.655,296.400 309.233 C 296.400 308.812,296.265 308.407,296.100 308.333 C 295.935 308.260,295.170 306.940,294.400 305.400 C 293.630 303.860,292.901 302.510,292.779 302.400 C 292.423 302.078,291.200 299.320,291.200 298.840 C 291.200 298.598,291.062 298.400,290.894 298.400 C 290.573 298.400,289.200 295.480,289.200 294.797 C 289.200 294.579,289.050 294.400,288.867 294.400 C 288.683 294.400,288.008 293.365,287.367 292.100 C 286.725 290.835,286.065 289.740,285.900 289.667 C 285.735 289.593,285.600 289.188,285.600 288.767 C 285.600 288.345,285.434 288.000,285.232 288.000 C 285.029 288.000,284.745 287.460,284.600 286.800 C 284.455 286.140,284.171 285.600,283.968 285.600 C 283.766 285.600,283.600 285.240,283.600 284.800 C 283.600 284.360,283.440 284.000,283.243 284.000 C 283.047 284.000,282.765 283.516,282.617 282.924 C 282.468 282.333,282.021 281.388,281.622 280.824 C 280.419 279.124,277.600 273.639,277.600 272.999 C 277.600 272.669,277.420 272.400,277.200 272.400 C 276.980 272.400,276.800 272.130,276.800 271.800 C 276.800 271.470,276.628 271.200,276.418 271.200 C 276.208 271.200,275.918 270.570,275.774 269.800 C 275.629 269.030,275.373 268.400,275.205 268.400 C 275.036 268.400,274.381 267.365,273.749 266.100 C 273.117 264.835,272.501 263.710,272.379 263.600 C 272.023 263.278,270.800 260.520,270.800 260.040 C 270.800 259.798,270.620 259.600,270.400 259.600 C 270.180 259.600,270.000 259.330,270.000 259.000 C 270.000 258.670,269.840 258.400,269.645 258.400 C 269.449 258.400,269.171 257.770,269.026 257.000 C 268.882 256.230,268.614 255.600,268.431 255.600 C 268.248 255.600,267.581 254.565,266.949 253.300 C 266.317 252.035,265.705 250.910,265.589 250.800 C 265.473 250.690,265.028 249.790,264.600 248.800 C 264.172 247.810,263.718 246.910,263.590 246.800 C 263.232 246.491,262.000 243.733,262.000 243.240 C 262.000 242.998,261.865 242.798,261.700 242.795 C 261.535 242.793,261.043 242.028,260.607 241.095 C 260.172 240.163,259.497 239.109,259.107 238.753 C 258.718 238.397,258.400 237.981,258.400 237.827 C 258.400 237.395,254.102 233.200,253.659 233.200 C 253.443 233.200,253.207 233.065,253.133 232.900 C 252.625 231.756,245.780 230.719,244.419 231.580 M228.400 287.200 C 228.400 287.420,228.850 287.600,229.400 287.600 C 229.950 287.600,230.400 287.780,230.400 288.000 C 230.400 288.220,230.684 288.400,231.031 288.400 C 231.933 288.400,234.560 291.125,235.409 292.941 C 237.158 296.680,235.121 305.200,232.478 305.200 C 232.269 305.200,231.874 305.470,231.600 305.800 C 231.326 306.130,230.764 306.400,230.351 306.400 C 229.938 306.400,229.600 306.580,229.600 306.800 C 229.600 307.610,223.485 307.265,221.575 306.347 C 218.946 305.084,216.400 301.956,216.400 299.991 C 216.400 299.582,216.220 299.136,216.000 299.000 C 215.780 298.864,215.600 298.054,215.600 297.200 C 215.600 296.346,215.780 295.536,216.000 295.400 C 216.220 295.264,216.400 294.831,216.400 294.438 C 216.400 292.467,219.023 289.260,221.523 288.175 C 222.335 287.822,223.270 287.379,223.600 287.190 C 224.444 286.708,228.400 286.716,228.400 287.200 M155.500 311.476 C 155.115 311.576,154.485 311.576,154.100 311.476 C 153.715 311.375,154.030 311.293,154.800 311.293 C 155.570 311.293,155.885 311.375,155.500 311.476 M157.800 312.400 C 157.936 312.620,158.485 312.800,159.021 312.800 C 160.142 312.800,163.200 314.040,163.200 314.494 C 163.200 314.662,163.486 314.800,163.835 314.800 C 165.070 314.800,170.000 320.386,170.000 321.786 C 170.000 322.124,170.180 322.400,170.400 322.400 C 170.620 322.400,170.800 322.839,170.800 323.376 C 170.800 323.913,170.980 324.464,171.200 324.600 C 171.425 324.739,171.600 326.663,171.600 329.000 C 171.600 331.337,171.425 333.261,171.200 333.400 C 170.980 333.536,170.800 334.072,170.800 334.590 C 170.800 335.109,170.593 335.602,170.340 335.687 C 170.087 335.771,169.952 336.054,170.040 336.315 C 170.158 336.666,170.502 336.633,171.353 336.191 C 171.987 335.862,173.202 335.481,174.053 335.345 C 174.904 335.209,175.600 334.963,175.600 334.798 C 175.600 333.646,189.118 333.697,189.832 334.852 C 189.950 335.043,190.504 335.200,191.063 335.200 C 192.044 335.200,194.791 336.279,195.200 336.825 C 195.310 336.972,195.850 337.230,196.400 337.399 C 198.510 338.045,206.000 344.829,206.000 346.093 C 206.000 346.435,206.254 346.812,206.565 346.931 C 206.875 347.050,207.361 347.790,207.645 348.574 C 207.929 349.358,208.305 350.000,208.480 350.000 C 208.656 350.000,208.800 350.349,208.800 350.776 C 208.800 351.203,208.975 351.661,209.188 351.793 C 209.402 351.925,209.696 352.930,209.841 354.025 C 209.987 355.121,210.262 356.115,210.453 356.233 C 210.644 356.351,210.800 359.036,210.800 362.200 C 210.800 365.364,210.644 368.049,210.453 368.167 C 210.262 368.285,209.986 369.286,209.839 370.391 C 209.692 371.496,209.399 372.400,209.186 372.400 C 208.974 372.400,208.800 372.850,208.800 373.400 C 208.800 373.950,208.620 374.400,208.400 374.400 C 208.180 374.400,208.000 374.640,208.000 374.934 C 208.000 376.331,200.422 385.200,199.229 385.200 C 198.993 385.200,198.800 385.353,198.800 385.539 C 198.800 385.726,198.035 386.216,197.100 386.628 C 196.165 387.041,195.310 387.473,195.200 387.589 C 194.635 388.185,193.048 388.813,191.517 389.047 C 190.573 389.191,189.620 389.446,189.400 389.613 C 188.029 390.656,176.400 390.611,176.400 389.563 C 176.400 389.363,175.905 389.201,175.300 389.202 C 173.983 389.204,170.400 387.975,170.400 387.521 C 170.400 387.344,170.062 387.200,169.649 387.200 C 169.236 387.200,168.674 386.930,168.400 386.600 C 168.126 386.270,167.694 386.000,167.439 386.000 C 167.185 386.000,166.717 385.640,166.400 385.200 C 166.083 384.760,165.635 384.400,165.404 384.400 C 164.891 384.400,160.800 380.421,160.800 379.922 C 160.800 379.725,160.350 379.114,159.800 378.564 C 159.250 378.014,158.800 377.302,158.800 376.982 C 158.800 376.662,158.620 376.400,158.400 376.400 C 158.180 376.400,158.000 376.130,158.000 375.800 C 158.000 375.470,157.820 375.200,157.600 375.200 C 157.380 375.200,157.200 374.951,157.200 374.646 C 157.200 374.341,156.931 373.576,156.602 372.946 C 156.274 372.316,156.004 371.406,156.002 370.924 C 156.001 370.442,155.839 369.948,155.642 369.826 C 154.808 369.310,154.029 358.611,154.772 357.868 C 155.008 357.632,155.200 356.756,155.200 355.920 C 155.200 355.084,155.380 354.400,155.600 354.400 C 155.820 354.400,156.000 354.013,156.000 353.540 C 156.000 352.608,157.925 348.364,158.539 347.940 C 158.747 347.798,158.791 347.353,158.637 346.953 C 158.483 346.552,158.479 346.345,158.626 346.493 C 158.774 346.641,159.165 346.492,159.495 346.162 C 160.322 345.335,159.800 344.958,158.667 345.564 C 157.202 346.348,148.400 345.681,148.400 344.786 C 148.400 344.609,147.851 344.343,147.181 344.196 C 146.510 344.049,145.747 343.584,145.485 343.164 C 145.222 342.744,144.787 342.400,144.518 342.400 C 142.669 342.400,138.405 335.497,138.402 332.500 C 138.401 331.565,138.220 330.800,138.000 330.800 C 137.780 330.800,137.600 329.990,137.600 329.000 C 137.600 328.010,137.780 327.200,138.000 327.200 C 138.220 327.200,138.400 326.481,138.400 325.603 C 138.400 323.994,139.527 320.800,140.094 320.800 C 140.262 320.800,140.400 320.608,140.400 320.373 C 140.400 319.866,142.388 317.133,143.078 316.691 C 143.343 316.521,143.833 316.110,144.165 315.778 C 145.232 314.711,149.244 312.800,150.417 312.800 C 151.042 312.800,151.664 312.620,151.800 312.400 C 151.936 312.180,153.286 312.000,154.800 312.000 C 156.314 312.000,157.664 312.180,157.800 312.400 M184.100 333.089 C 183.385 333.178,182.215 333.178,181.500 333.089 C 180.785 333.001,181.370 332.928,182.800 332.928 C 184.230 332.928,184.815 333.001,184.100 333.089 M153.893 364.100 C 153.809 365.035,153.740 364.270,153.740 362.400 C 153.740 360.530,153.809 359.765,153.893 360.700 C 153.977 361.635,153.977 363.165,153.893 364.100 M267.300 472.300 C 230.505 472.356,170.295 472.356,133.500 472.300 C 96.705 472.244,126.810 472.198,200.400 472.198 C 273.990 472.198,304.095 472.244,267.300 472.300 " stroke="none" fill="#000000" fill-rule="evenodd"></path><path id="path1" d="M141.746 23.000 C 141.747 25.200,141.814 26.049,141.895 24.887 C 141.976 23.724,141.976 21.924,141.893 20.887 C 141.811 19.849,141.745 20.800,141.746 23.000 M149.500 92.700 C 149.556 124.985,149.647 161.750,149.704 174.400 C 149.760 187.050,149.850 160.635,149.903 115.700 C 149.956 70.765,149.865 34.000,149.700 34.000 C 149.535 34.000,149.445 60.415,149.500 92.700 M230.596 111.000 C 230.596 149.500,230.643 165.191,230.700 145.868 C 230.757 126.546,230.757 95.046,230.700 75.868 C 230.643 56.691,230.596 72.500,230.596 111.000 M154.100 311.476 C 154.485 311.576,155.115 311.576,155.500 311.476 C 155.885 311.375,155.570 311.293,154.800 311.293 C 154.030 311.293,153.715 311.375,154.100 311.476 M181.500 333.089 C 182.215 333.178,183.385 333.178,184.100 333.089 C 184.815 333.001,184.230 332.928,182.800 332.928 C 181.370 332.928,180.785 333.001,181.500 333.089 M181.500 333.889 C 182.215 333.978,183.385 333.978,184.100 333.889 C 184.815 333.801,184.230 333.728,182.800 333.728 C 181.370 333.728,180.785 333.801,181.500 333.889 M153.740 362.400 C 153.740 364.270,153.809 365.035,153.893 364.100 C 153.977 363.165,153.977 361.635,153.893 360.700 C 153.809 359.765,153.740 360.530,153.740 362.400 M181.900 390.682 C 182.395 390.778,183.205 390.778,183.700 390.682 C 184.195 390.587,183.790 390.509,182.800 390.509 C 181.810 390.509,181.405 390.587,181.900 390.682 M133.500 472.300 C 170.295 472.356,230.505 472.356,267.300 472.300 C 304.095 472.244,273.990 472.198,200.400 472.198 C 126.810 472.198,96.705 472.244,133.500 472.300 " stroke="none" fill="#060606" fill-rule="evenodd"></path><path id="path2" d="M249.396 115.200 C 249.396 160.190,249.443 178.595,249.500 156.100 C 249.557 133.605,249.557 96.795,249.500 74.300 C 249.443 51.805,249.396 70.210,249.396 115.200 M215.693 297.200 C 215.693 297.970,215.775 298.285,215.876 297.900 C 215.976 297.515,215.976 296.885,215.876 296.500 C 215.775 296.115,215.693 296.430,215.693 297.200 M137.867 327.867 C 137.504 328.230,137.528 329.908,137.900 330.138 C 138.065 330.240,138.200 329.711,138.200 328.962 C 138.200 328.213,138.185 327.600,138.167 327.600 C 138.148 327.600,138.013 327.720,137.867 327.867 M154.534 362.000 C 154.534 363.650,154.605 364.325,154.691 363.500 C 154.778 362.675,154.778 361.325,154.691 360.500 C 154.605 359.675,154.534 360.350,154.534 362.000 M371.606 429.433 C 371.609 429.855,371.795 430.470,372.018 430.800 C 372.315 431.238,372.352 431.076,372.156 430.200 C 371.827 428.729,371.598 428.410,371.606 429.433 M133.468 471.500 C 170.025 471.556,229.965 471.556,266.668 471.500 C 303.370 471.444,273.460 471.398,200.200 471.398 C 126.940 471.398,96.910 471.444,133.468 471.500 " stroke="none" fill="#0f0f0f" fill-rule="evenodd"></path><path id="path3" d="M142.144 22.800 C 142.144 24.890,142.212 25.745,142.294 24.700 C 142.376 23.655,142.376 21.945,142.294 20.900 C 142.212 19.855,142.144 20.710,142.144 22.800 M150.596 115.600 C 150.596 160.590,150.643 178.995,150.700 156.500 C 150.757 134.005,150.757 97.195,150.700 74.700 C 150.643 52.205,150.596 70.610,150.596 115.600 " stroke="none" fill="#171717" fill-rule="evenodd"></path><path id="path4" d="M231.396 111.000 C 231.396 149.720,231.443 165.501,231.500 146.068 C 231.557 126.636,231.557 94.956,231.500 75.668 C 231.443 56.381,231.396 72.280,231.396 111.000 M171.320 329.200 C 171.320 330.410,171.395 330.905,171.487 330.300 C 171.578 329.695,171.578 328.705,171.487 328.100 C 171.395 327.495,171.320 327.990,171.320 329.200 " stroke="none" fill="#1d1d1d" fill-rule="evenodd"></path><path id="path5" d="M154.100 345.876 C 154.485 345.976,155.115 345.976,155.500 345.876 C 155.885 345.775,155.570 345.693,154.800 345.693 C 154.030 345.693,153.715 345.775,154.100 345.876 " stroke="none" fill="#232323" fill-rule="evenodd"></path><path id="path6" d="M218.196 111.000 C 218.196 149.280,218.243 164.881,218.300 145.668 C 218.357 126.456,218.357 95.136,218.300 76.068 C 218.243 57.001,218.196 72.720,218.196 111.000 M143.332 457.500 C 175.855 457.556,228.955 457.556,261.332 457.500 C 293.710 457.444,267.100 457.397,202.200 457.397 C 137.300 457.397,110.810 457.444,143.332 457.500 " stroke="none" fill="#2b2b2b" fill-rule="evenodd"></path><path id="path7" d="M248.996 115.400 C 248.996 160.280,249.043 178.581,249.100 156.068 C 249.157 133.556,249.157 96.836,249.100 74.468 C 249.043 52.101,248.996 70.520,248.996 115.400 M246.505 231.087 C 247.114 231.179,248.014 231.177,248.505 231.082 C 248.997 230.987,248.500 230.911,247.400 230.914 C 246.300 230.917,245.897 230.995,246.505 231.087 M182.100 334.276 C 182.485 334.376,183.115 334.376,183.500 334.276 C 183.885 334.175,183.570 334.093,182.800 334.093 C 182.030 334.093,181.715 334.175,182.100 334.276 " stroke="none" fill="#323232" fill-rule="evenodd"></path><path id="path8" d="M162.000 380.925 C 162.000 380.994,162.585 381.579,163.300 382.225 L 164.600 383.400 163.425 382.100 C 162.330 380.888,162.000 380.616,162.000 380.925 M133.900 471.100 C 170.255 471.156,229.745 471.156,266.100 471.100 C 302.455 471.044,272.710 470.998,200.000 470.998 C 127.290 470.998,97.545 471.044,133.900 471.100 " stroke="none" fill="#3c3c3c" fill-rule="evenodd"></path><path id="path9" d="" stroke="none" fill="#464646" fill-rule="evenodd"></path><path id="path10" d="M150.996 115.600 C 150.996 160.590,151.043 178.995,151.100 156.500 C 151.157 134.005,151.157 97.195,151.100 74.700 C 151.043 52.205,150.996 70.610,150.996 115.600 M353.693 426.800 C 353.693 427.570,353.775 427.885,353.876 427.500 C 353.976 427.115,353.976 426.485,353.876 426.100 C 353.775 425.715,353.693 426.030,353.693 426.800 " stroke="none" fill="#4c4c4c" fill-rule="evenodd"></path><path id="path11" d="" stroke="none" fill="#575757" fill-rule="evenodd"></path><path id="path12" d="M28.893 433.200 C 28.893 433.970,28.975 434.285,29.076 433.900 C 29.176 433.515,29.176 432.885,29.076 432.500 C 28.975 432.115,28.893 432.430,28.893 433.200 " stroke="none" fill="#5f5f5f" fill-rule="evenodd"></path><path id="path13" d="M257.346 23.000 C 257.347 25.200,257.414 26.049,257.495 24.887 C 257.576 23.724,257.576 21.924,257.493 20.887 C 257.411 19.849,257.345 20.800,257.346 23.000 M210.501 362.200 C 210.505 363.080,210.587 363.393,210.683 362.895 C 210.779 362.398,210.775 361.678,210.675 361.295 C 210.575 360.913,210.496 361.320,210.501 362.200 " stroke="none" fill="#6b6b6b" fill-rule="evenodd"></path><path id="path14" d="M181.900 389.882 C 182.395 389.978,183.205 389.978,183.700 389.882 C 184.195 389.787,183.790 389.709,182.800 389.709 C 181.810 389.709,181.405 389.787,181.900 389.882 " stroke="none" fill="#727272" fill-rule="evenodd"></path><path id="path15" d="M142.546 23.000 C 142.547 25.200,142.614 26.049,142.695 24.887 C 142.776 23.724,142.776 21.924,142.693 20.887 C 142.611 19.849,142.545 20.800,142.546 23.000 M231.796 111.200 C 231.796 149.590,231.843 165.295,231.900 146.100 C 231.957 126.905,231.957 95.495,231.900 76.300 C 231.843 57.105,231.796 72.810,231.796 111.200 M182.305 334.683 C 182.802 334.779,183.522 334.775,183.905 334.675 C 184.287 334.575,183.880 334.496,183.000 334.501 C 182.120 334.505,181.807 334.587,182.305 334.683 " stroke="none" fill="#7e7e7e" fill-rule="evenodd"></path><path id="path16" d="M133.900 470.700 C 170.255 470.756,229.745 470.756,266.100 470.700 C 302.455 470.644,272.710 470.598,200.000 470.598 C 127.290 470.598,97.545 470.644,133.900 470.700 " stroke="none" fill="#878787" fill-rule="evenodd"></path><path id="path17" d="" stroke="none" fill="#8e8e8e" fill-rule="evenodd"></path><path id="path18" d="M217.796 111.000 C 217.796 149.280,217.843 164.881,217.900 145.668 C 217.957 126.456,217.957 95.136,217.900 76.068 C 217.843 57.001,217.796 72.720,217.796 111.000 M171.300 258.676 C 171.685 258.776,172.315 258.776,172.700 258.676 C 173.085 258.575,172.770 258.493,172.000 258.493 C 171.230 258.493,170.915 258.575,171.300 258.676 " stroke="none" fill="#949494" fill-rule="evenodd"></path><path id="path19" d="M174.131 13.100 C 188.393 13.158,211.613 13.158,225.731 13.100 C 239.849 13.042,228.180 12.994,199.800 12.994 C 171.420 12.994,159.869 13.042,174.131 13.100 M151.396 115.600 C 151.396 160.590,151.443 178.995,151.500 156.500 C 151.557 134.005,151.557 97.195,151.500 74.700 C 151.443 52.205,151.396 70.610,151.396 115.600 M248.596 115.600 C 248.596 160.590,248.643 178.995,248.700 156.500 C 248.757 134.005,248.757 97.195,248.700 74.700 C 248.643 52.205,248.596 70.610,248.596 115.600 " stroke="none" fill="#9c9c9c" fill-rule="evenodd"></path><path id="path20" d="" stroke="none" fill="#a5a5a5" fill-rule="evenodd"></path><path id="path21" d="" stroke="none" fill="#adadad" fill-rule="evenodd"></path><path id="path22" d="" stroke="none" fill="#b4b4b4" fill-rule="evenodd"></path><path id="path23" d="M143.932 457.900 C 176.125 457.956,228.685 457.956,260.732 457.900 C 292.780 457.844,266.440 457.797,202.200 457.797 C 137.960 457.797,111.740 457.844,143.932 457.900 " stroke="none" fill="#bbbbbb" fill-rule="evenodd"></path><path id="path24" d="M232.196 111.200 C 232.196 149.810,232.243 165.605,232.300 146.300 C 232.357 126.995,232.357 95.405,232.300 76.100 C 232.243 56.795,232.196 72.590,232.196 111.200 " stroke="none" fill="#c1c1c1" fill-rule="evenodd"></path><path id="path25" d="M29.324 433.400 C 29.326 434.720,29.401 435.212,29.490 434.493 C 29.579 433.774,29.577 432.694,29.486 432.093 C 29.395 431.492,29.322 432.080,29.324 433.400 " stroke="none" fill="#cfcfcf" fill-rule="evenodd"></path><path id="path26" d="M256.946 23.000 C 256.947 25.200,257.014 26.049,257.095 24.887 C 257.176 23.724,257.176 21.924,257.093 20.887 C 257.011 19.849,256.945 20.800,256.946 23.000 M217.396 111.000 C 217.396 149.500,217.443 165.191,217.500 145.868 C 217.557 126.546,217.557 95.046,217.500 75.868 C 217.443 56.691,217.396 72.500,217.396 111.000 " stroke="none" fill="#d8d8d8" fill-rule="evenodd"></path><path id="path27" d="M248.652 32.716 C 248.544 32.890,249.073 32.961,249.828 32.873 C 250.583 32.785,251.200 32.642,251.200 32.556 C 251.200 32.255,248.845 32.403,248.652 32.716 M235.293 297.200 C 235.293 297.970,235.375 298.285,235.476 297.900 C 235.576 297.515,235.576 296.885,235.476 296.500 C 235.375 296.115,235.293 296.430,235.293 297.200 " stroke="none" fill="#dedede" fill-rule="evenodd"></path><path id="path28" d="" stroke="none" fill="#e8e8e8" fill-rule="evenodd"></path><path id="path29" d="M256.550 23.000 C 256.551 25.420,256.616 26.358,256.696 25.085 C 256.776 23.812,256.775 21.832,256.694 20.685 C 256.614 19.538,256.549 20.580,256.550 23.000 M181.300 389.491 C 182.125 389.578,183.475 389.578,184.300 389.491 C 185.125 389.405,184.450 389.334,182.800 389.334 C 181.150 389.334,180.475 389.405,181.300 389.491 M144.100 458.300 C 176.165 458.356,228.635 458.356,260.700 458.300 C 292.765 458.244,266.530 458.197,202.400 458.197 C 138.270 458.197,112.035 458.244,144.100 458.300 " stroke="none" fill="#eeeeee" fill-rule="evenodd"></path><path id="path30" d="M168.500 257.876 C 168.885 257.976,169.515 257.976,169.900 257.876 C 170.285 257.775,169.970 257.693,169.200 257.693 C 168.430 257.693,168.115 257.775,168.500 257.876 M174.900 257.876 C 175.285 257.976,175.915 257.976,176.300 257.876 C 176.685 257.775,176.370 257.693,175.600 257.693 C 174.830 257.693,174.515 257.775,174.900 257.876 M181.700 335.087 C 182.305 335.178,183.295 335.178,183.900 335.087 C 184.505 334.995,184.010 334.920,182.800 334.920 C 181.590 334.920,181.095 334.995,181.700 335.087 M151.700 344.676 C 152.085 344.776,152.715 344.776,153.100 344.676 C 153.485 344.575,153.170 344.493,152.400 344.493 C 151.630 344.493,151.315 344.575,151.700 344.676 M133.532 470.300 C 170.345 470.356,230.465 470.356,267.132 470.300 C 303.800 470.244,273.680 470.198,200.200 470.198 C 126.720 470.198,96.720 470.244,133.532 470.300 " stroke="none" fill="#f4f4f4" fill-rule="evenodd"></path><path id="path31" d="M147.470 13.845 C 145.758 14.465,143.600 16.417,143.600 17.346 C 143.600 17.680,143.420 18.064,143.200 18.200 C 142.971 18.342,142.800 20.404,142.800 23.024 C 142.800 25.808,142.957 27.600,143.200 27.600 C 143.420 27.600,143.600 27.974,143.600 28.431 C 143.600 29.294,145.615 31.600,146.369 31.600 C 146.606 31.600,146.800 31.780,146.800 32.000 C 146.800 32.222,147.867 32.400,149.200 32.400 L 151.600 32.400 151.600 115.371 C 151.600 181.200,151.497 198.452,151.100 198.871 C 150.670 199.326,146.757 206.740,144.857 210.700 C 144.514 211.415,144.091 212.000,143.917 212.000 C 143.742 212.000,143.600 212.360,143.600 212.800 C 143.600 213.240,143.434 213.600,143.232 213.600 C 143.029 213.600,142.745 214.140,142.600 214.800 C 142.455 215.460,142.171 216.000,141.968 216.000 C 141.766 216.000,141.600 216.360,141.600 216.800 C 141.600 217.240,141.465 217.602,141.300 217.605 C 141.135 217.607,140.656 218.327,140.236 219.205 C 139.815 220.082,139.320 220.800,139.136 220.800 C 138.951 220.800,138.800 221.071,138.800 221.403 C 138.800 222.094,136.752 226.132,136.300 226.333 C 136.135 226.407,136.000 226.680,136.000 226.940 C 136.000 227.201,135.575 228.041,135.056 228.807 C 134.538 229.573,133.973 230.650,133.803 231.200 C 133.632 231.750,133.381 232.290,133.246 232.400 C 133.111 232.510,132.482 233.590,131.849 234.800 C 131.216 236.010,130.577 237.090,130.428 237.200 C 130.068 237.467,128.800 240.214,128.800 240.727 C 128.800 240.951,128.665 241.193,128.500 241.267 C 128.335 241.340,127.684 242.435,127.052 243.700 C 126.421 244.965,125.746 246.000,125.552 246.000 C 125.359 246.000,125.200 246.287,125.200 246.638 C 125.200 247.344,123.973 249.723,123.500 249.933 C 123.335 250.007,123.200 250.412,123.200 250.833 C 123.200 251.255,123.040 251.600,122.843 251.600 C 122.647 251.600,122.384 252.009,122.259 252.508 C 122.134 253.007,121.664 253.810,121.215 254.291 C 120.767 254.773,120.400 255.371,120.400 255.622 C 120.400 256.187,119.108 258.552,118.700 258.733 C 118.535 258.807,118.400 259.107,118.400 259.401 C 118.400 260.089,117.092 262.394,116.700 262.397 C 116.535 262.399,116.400 262.670,116.400 263.000 C 116.400 263.330,116.240 263.600,116.045 263.600 C 115.849 263.600,115.571 264.230,115.426 265.000 C 115.282 265.770,114.992 266.400,114.782 266.400 C 114.572 266.400,114.400 266.670,114.400 267.000 C 114.400 267.330,114.220 267.600,114.000 267.600 C 113.780 267.600,113.600 267.876,113.600 268.214 C 113.600 268.762,112.572 270.679,111.998 271.200 C 111.877 271.310,111.428 272.210,111.000 273.200 C 110.572 274.190,110.111 275.090,109.975 275.200 C 109.840 275.310,109.395 276.165,108.987 277.100 C 108.580 278.035,108.101 278.800,107.923 278.800 C 107.745 278.800,107.600 279.070,107.600 279.400 C 107.600 279.730,107.420 280.000,107.200 280.000 C 106.980 280.000,106.800 280.198,106.800 280.440 C 106.800 280.947,105.560 283.703,105.198 284.000 C 105.064 284.110,104.712 284.800,104.415 285.534 C 104.118 286.268,103.678 287.086,103.437 287.352 C 102.743 288.121,101.600 290.410,101.600 291.032 C 101.600 291.345,101.420 291.600,101.200 291.600 C 100.980 291.600,100.800 291.870,100.800 292.200 C 100.800 292.530,100.665 292.802,100.500 292.804 C 100.335 292.806,99.845 293.616,99.410 294.604 C 98.976 295.592,98.481 296.400,98.310 296.400 C 98.140 296.400,98.000 296.598,98.000 296.840 C 98.000 297.319,96.777 300.077,96.421 300.400 C 96.191 300.609,94.993 302.746,94.237 304.297 C 93.997 304.790,93.665 305.195,93.500 305.197 C 93.335 305.199,93.200 305.398,93.200 305.640 C 93.200 306.119,91.977 308.877,91.621 309.200 C 91.363 309.434,90.453 311.099,88.450 315.000 C 87.660 316.540,86.917 317.890,86.800 318.000 C 86.684 318.110,86.231 318.963,85.794 319.895 C 85.357 320.828,84.885 321.593,84.743 321.595 C 84.602 321.598,84.363 322.093,84.212 322.696 C 84.060 323.299,83.815 323.884,83.666 323.996 C 83.517 324.108,82.864 325.235,82.213 326.500 C 81.563 327.765,80.889 328.800,80.716 328.800 C 80.542 328.800,80.400 329.160,80.400 329.600 C 80.400 330.040,80.234 330.400,80.032 330.400 C 79.829 330.400,79.545 330.940,79.400 331.600 C 79.255 332.260,78.971 332.800,78.768 332.800 C 78.566 332.800,78.400 333.160,78.400 333.600 C 78.400 334.040,78.240 334.400,78.043 334.400 C 77.847 334.400,77.584 334.809,77.459 335.308 C 77.334 335.807,76.885 336.587,76.462 337.041 C 76.039 337.495,75.568 338.437,75.415 339.133 C 75.262 339.830,74.971 340.400,74.768 340.400 C 74.566 340.400,74.400 340.670,74.400 341.000 C 74.400 341.330,74.220 341.600,74.000 341.600 C 73.780 341.600,73.600 341.874,73.600 342.208 C 73.600 342.794,71.771 345.991,71.202 346.400 C 71.049 346.510,70.791 347.138,70.630 347.796 C 70.469 348.454,70.215 349.084,70.066 349.196 C 69.917 349.308,69.264 350.435,68.613 351.700 C 67.963 352.965,67.289 354.000,67.116 354.000 C 66.942 354.000,66.800 354.198,66.800 354.440 C 66.800 354.925,65.574 357.683,65.217 358.000 C 65.093 358.110,64.477 359.235,63.848 360.500 C 63.219 361.765,62.546 362.800,62.352 362.800 C 62.159 362.800,62.000 362.998,62.000 363.240 C 62.000 363.733,60.768 366.491,60.410 366.800 C 60.282 366.910,59.841 367.765,59.428 368.700 C 59.016 369.635,58.526 370.400,58.339 370.400 C 58.153 370.400,58.000 370.670,58.000 371.000 C 58.000 371.330,57.820 371.600,57.600 371.600 C 57.380 371.600,57.200 371.887,57.200 372.238 C 57.200 372.819,56.099 375.117,55.589 375.600 C 55.473 375.710,55.041 376.565,54.628 377.500 C 54.216 378.435,53.765 379.200,53.627 379.200 C 53.489 379.200,53.027 380.100,52.600 381.200 C 52.173 382.300,51.684 383.200,51.512 383.200 C 51.340 383.200,51.200 383.470,51.200 383.800 C 51.200 384.130,51.020 384.400,50.800 384.400 C 50.580 384.400,50.400 384.738,50.400 385.151 C 50.400 385.564,50.130 386.126,49.800 386.400 C 49.470 386.674,49.200 387.146,49.200 387.449 C 49.200 387.752,49.020 388.000,48.800 388.000 C 48.580 388.000,48.400 388.198,48.400 388.440 C 48.400 388.947,47.160 391.703,46.798 392.000 C 46.664 392.110,46.312 392.800,46.015 393.534 C 45.718 394.268,45.278 395.078,45.037 395.335 C 44.797 395.592,44.061 396.882,43.402 398.201 C 42.743 399.521,42.111 400.690,41.996 400.800 C 41.882 400.910,41.431 401.763,40.994 402.695 C 40.557 403.628,40.079 404.393,39.932 404.395 C 39.784 404.398,39.545 404.940,39.400 405.600 C 39.255 406.260,38.971 406.800,38.768 406.800 C 38.566 406.800,38.400 407.145,38.400 407.567 C 38.400 407.988,38.265 408.393,38.100 408.467 C 37.738 408.628,36.037 411.519,35.728 412.500 C 35.606 412.885,35.348 413.200,35.153 413.200 C 34.959 413.200,34.799 413.425,34.798 413.700 C 34.797 413.975,34.361 415.059,33.828 416.109 C 33.295 417.159,32.742 418.552,32.599 419.204 C 32.456 419.857,32.172 420.494,31.969 420.619 C 31.766 420.745,31.600 421.251,31.600 421.744 C 31.600 422.237,31.437 422.811,31.238 423.020 C 29.408 424.940,29.442 443.200,31.275 443.200 C 31.454 443.200,31.600 443.650,31.600 444.200 C 31.600 444.750,31.772 445.200,31.982 445.200 C 32.192 445.200,32.482 445.830,32.626 446.600 C 32.771 447.370,33.049 448.000,33.245 448.000 C 33.440 448.000,33.600 448.270,33.600 448.600 C 33.600 448.930,33.760 449.200,33.957 449.200 C 34.153 449.200,34.426 449.650,34.564 450.200 C 34.702 450.750,34.992 451.200,35.208 451.200 C 35.423 451.200,35.600 451.470,35.600 451.800 C 35.600 452.130,35.735 452.401,35.900 452.403 C 36.065 452.404,36.632 453.040,37.161 453.816 C 38.266 455.439,41.411 458.800,41.824 458.800 C 41.978 458.800,42.772 459.385,43.589 460.100 C 46.215 462.398,47.464 463.255,49.700 464.293 C 50.525 464.675,51.200 465.126,51.200 465.294 C 51.200 465.462,51.398 465.600,51.640 465.600 C 52.181 465.600,54.925 466.857,55.200 467.230 C 55.310 467.380,56.164 467.630,57.098 467.786 C 58.032 467.942,58.897 468.234,59.022 468.435 C 59.146 468.636,59.651 468.800,60.144 468.800 C 60.637 468.800,61.265 469.025,61.540 469.300 C 61.938 469.698,90.245 469.800,200.400 469.800 C 310.555 469.800,338.862 469.698,339.260 469.300 C 339.535 469.025,340.095 468.800,340.505 468.800 C 340.915 468.800,342.184 468.514,343.325 468.164 C 345.523 467.491,346.129 467.264,348.460 466.241 C 349.264 465.888,350.119 465.600,350.360 465.600 C 350.602 465.600,350.800 465.420,350.800 465.200 C 350.800 464.980,351.160 464.800,351.600 464.800 C 352.040 464.800,352.400 464.640,352.400 464.443 C 352.400 464.247,352.809 463.984,353.308 463.859 C 353.807 463.734,354.610 463.264,355.091 462.815 C 355.573 462.367,356.076 462.000,356.210 462.000 C 356.419 462.000,358.173 460.766,359.907 459.400 C 360.186 459.180,361.086 458.313,361.907 457.473 C 362.728 456.634,363.895 455.479,364.500 454.907 C 365.105 454.336,365.600 453.629,365.600 453.337 C 365.600 453.046,365.960 452.582,366.400 452.307 C 366.840 452.032,367.200 451.595,367.200 451.336 C 367.200 450.742,368.498 448.245,368.900 448.067 C 369.065 447.993,369.200 447.588,369.200 447.167 C 369.200 446.745,369.355 446.400,369.545 446.400 C 370.579 446.400,371.739 431.649,370.849 429.816 C 370.631 429.367,370.338 427.965,370.198 426.700 C 370.057 425.435,369.775 424.400,369.571 424.400 C 369.367 424.400,369.200 423.986,369.200 423.480 C 369.200 422.974,369.052 422.389,368.871 422.180 C 368.690 421.971,368.202 420.765,367.788 419.500 C 367.373 418.235,366.892 417.200,366.717 417.200 C 366.543 417.200,366.400 416.840,366.400 416.400 C 366.400 415.960,366.234 415.600,366.032 415.600 C 365.829 415.600,365.545 415.060,365.400 414.400 C 365.255 413.740,364.971 413.200,364.768 413.200 C 364.566 413.200,364.400 412.840,364.400 412.400 C 364.400 411.960,364.232 411.600,364.027 411.600 C 363.822 411.600,363.528 411.195,363.373 410.700 C 363.219 410.205,362.976 409.710,362.834 409.600 C 362.692 409.490,361.862 407.960,360.988 406.200 C 360.115 404.440,359.175 402.762,358.900 402.471 C 358.625 402.181,358.400 401.686,358.400 401.371 C 358.400 401.057,358.262 400.800,358.094 400.800 C 357.773 400.800,356.400 397.880,356.400 397.197 C 356.400 396.979,356.260 396.800,356.090 396.800 C 355.919 396.800,355.424 395.992,354.990 395.004 C 354.555 394.016,354.065 393.206,353.900 393.204 C 353.735 393.202,353.600 392.930,353.600 392.600 C 353.600 392.270,353.465 391.999,353.300 391.999 C 353.135 391.998,352.653 391.143,352.229 390.099 C 351.806 389.054,351.354 388.110,351.226 388.000 C 351.097 387.890,350.634 387.080,350.196 386.200 C 349.758 385.320,349.310 384.510,349.200 384.400 C 348.683 383.883,347.600 381.608,347.600 381.038 C 347.600 380.687,347.420 380.400,347.200 380.400 C 346.980 380.400,346.800 380.130,346.800 379.800 C 346.800 379.470,346.665 379.198,346.500 379.195 C 346.335 379.193,345.843 378.428,345.406 377.495 C 344.969 376.563,344.519 375.710,344.406 375.600 C 343.893 375.102,342.800 372.814,342.800 372.238 C 342.800 371.887,342.620 371.600,342.400 371.600 C 342.180 371.600,342.000 371.330,342.000 371.000 C 342.000 370.670,341.865 370.398,341.700 370.396 C 341.535 370.394,341.045 369.584,340.610 368.596 C 340.176 367.608,339.721 366.800,339.598 366.800 C 339.476 366.800,339.027 365.900,338.600 364.800 C 338.173 363.700,337.724 362.800,337.602 362.800 C 337.479 362.800,337.024 361.992,336.590 361.004 C 336.155 360.016,335.665 359.206,335.500 359.204 C 335.335 359.202,335.200 358.930,335.200 358.600 C 335.200 358.270,335.028 358.000,334.818 358.000 C 334.608 358.000,334.318 357.370,334.174 356.600 C 334.029 355.830,333.751 355.200,333.555 355.200 C 333.360 355.200,333.200 354.930,333.200 354.600 C 333.200 354.270,333.041 354.000,332.847 354.000 C 332.652 354.000,332.392 353.685,332.269 353.300 C 332.146 352.915,331.414 351.520,330.642 350.200 C 329.870 348.880,329.230 347.485,329.219 347.100 C 329.209 346.715,329.020 346.400,328.800 346.400 C 328.580 346.400,328.400 346.130,328.400 345.800 C 328.400 345.470,328.265 345.198,328.100 345.196 C 327.935 345.194,327.445 344.384,327.010 343.396 C 326.576 342.408,326.095 341.600,325.942 341.600 C 325.789 341.600,325.545 341.060,325.400 340.400 C 325.255 339.740,324.971 339.200,324.768 339.200 C 324.566 339.200,324.400 338.840,324.400 338.400 C 324.400 337.960,324.263 337.600,324.095 337.600 C 323.927 337.600,323.612 337.248,323.395 336.818 C 321.275 332.621,320.151 330.578,319.900 330.467 C 319.735 330.393,319.600 329.988,319.600 329.567 C 319.600 329.145,319.432 328.800,319.227 328.800 C 319.022 328.800,318.728 328.395,318.573 327.900 C 318.419 327.405,318.176 326.910,318.034 326.800 C 317.892 326.690,317.062 325.160,316.188 323.400 C 315.315 321.640,314.375 319.962,314.100 319.671 C 313.825 319.381,313.600 318.886,313.600 318.571 C 313.600 318.257,313.462 318.000,313.294 318.000 C 312.973 318.000,311.600 315.080,311.600 314.397 C 311.600 314.179,311.462 314.000,311.294 314.000 C 311.126 314.000,310.675 313.325,310.293 312.500 C 309.568 310.940,308.759 309.544,308.379 309.200 C 308.023 308.878,306.800 306.120,306.800 305.640 C 306.800 305.398,306.665 305.198,306.500 305.195 C 306.335 305.193,305.843 304.428,305.406 303.495 C 304.969 302.563,304.513 301.710,304.391 301.600 C 304.269 301.490,303.637 300.320,302.985 299.000 C 302.333 297.680,301.665 296.540,301.500 296.467 C 301.335 296.393,301.200 295.988,301.200 295.567 C 301.200 295.145,301.032 294.800,300.827 294.800 C 300.622 294.800,300.328 294.395,300.173 293.900 C 300.019 293.405,299.772 292.910,299.625 292.800 C 299.254 292.522,298.000 289.775,298.000 289.240 C 298.000 288.998,297.865 288.799,297.700 288.797 C 297.535 288.795,297.203 288.390,296.963 287.897 C 296.233 286.400,295.013 284.213,294.789 284.000 C 294.673 283.890,294.228 282.990,293.800 282.000 C 293.372 281.010,292.925 280.110,292.807 280.000 C 292.689 279.890,292.234 279.080,291.796 278.200 C 291.358 277.320,290.910 276.510,290.800 276.400 C 290.283 275.883,289.200 273.608,289.200 273.038 C 289.200 272.687,289.020 272.400,288.800 272.400 C 288.580 272.400,288.400 272.130,288.400 271.800 C 288.400 271.470,288.265 271.198,288.100 271.195 C 287.935 271.193,287.443 270.428,287.006 269.495 C 286.569 268.563,286.119 267.710,286.006 267.600 C 285.493 267.102,284.400 264.814,284.400 264.238 C 284.400 263.887,284.220 263.600,284.000 263.600 C 283.780 263.600,283.600 263.345,283.600 263.033 C 283.600 262.722,283.465 262.407,283.300 262.333 C 283.135 262.260,282.642 261.480,282.204 260.600 C 281.766 259.720,281.316 258.910,281.204 258.800 C 280.761 258.364,279.600 255.904,279.600 255.401 C 279.600 255.107,279.465 254.807,279.300 254.733 C 278.938 254.572,277.237 251.681,276.928 250.700 C 276.806 250.315,276.548 250.000,276.353 250.000 C 276.159 250.000,276.000 249.802,276.000 249.560 C 276.000 249.080,274.777 246.322,274.421 246.000 C 274.042 245.657,273.298 244.321,271.525 240.800 C 270.583 238.930,269.585 237.162,269.306 236.871 C 269.028 236.581,268.800 236.101,268.800 235.805 C 268.800 235.509,268.657 235.207,268.482 235.133 C 268.306 235.060,267.394 233.470,266.454 231.600 C 265.514 229.730,264.304 227.480,263.766 226.600 C 262.686 224.837,262.000 223.350,262.000 222.774 C 262.000 222.568,261.820 222.400,261.600 222.400 C 261.380 222.400,261.200 222.040,261.200 221.600 C 261.200 221.160,261.020 220.800,260.800 220.800 C 260.580 220.800,260.400 220.543,260.400 220.229 C 260.400 219.914,260.175 219.419,259.900 219.129 C 259.625 218.838,258.860 217.520,258.200 216.200 C 257.540 214.880,256.865 213.740,256.700 213.667 C 256.535 213.593,256.400 213.188,256.400 212.767 C 256.400 212.345,256.234 212.000,256.032 212.000 C 255.829 212.000,255.545 211.460,255.400 210.800 C 255.255 210.140,255.016 209.598,254.868 209.595 C 254.721 209.593,254.243 208.828,253.806 207.895 C 253.369 206.963,252.918 206.110,252.804 206.000 C 252.689 205.890,251.880 204.360,251.006 202.600 C 250.131 200.840,249.187 199.162,248.908 198.871 C 248.501 198.448,248.400 181.868,248.400 115.371 L 248.400 32.400 250.800 32.400 C 252.133 32.400,253.200 32.222,253.200 32.000 C 253.200 31.780,253.393 31.600,253.629 31.600 C 254.194 31.600,255.252 30.521,255.889 29.294 C 256.723 27.687,256.589 17.651,255.716 16.389 C 254.592 14.762,254.038 14.330,252.483 13.864 C 250.052 13.137,149.475 13.118,147.470 13.845 M228.703 34.963 C 228.997 35.203,229.455 35.633,229.719 35.919 C 229.984 36.204,230.650 36.881,231.200 37.423 L 232.200 38.408 232.317 109.504 C 232.382 148.607,232.329 181.343,232.200 182.252 C 231.934 184.123,228.915 187.600,227.555 187.600 C 227.134 187.600,226.439 187.819,226.011 188.086 C 225.400 188.468,224.943 188.468,223.888 188.086 C 223.148 187.819,222.282 187.600,221.963 187.600 C 221.644 187.600,220.937 187.148,220.392 186.596 C 219.846 186.044,218.950 185.142,218.400 184.592 L 217.400 183.592 217.282 112.696 C 217.217 73.703,217.274 41.030,217.408 40.089 C 217.730 37.834,220.824 34.541,222.856 34.293 C 224.746 34.062,228.066 34.442,228.703 34.963 M252.300 230.866 C 253.015 231.146,253.600 231.516,253.600 231.688 C 253.600 231.859,253.850 232.000,254.156 232.000 C 254.874 232.000,259.600 236.732,259.600 237.452 C 259.600 237.753,259.759 238.000,259.952 238.000 C 260.146 238.000,260.819 239.035,261.448 240.300 C 262.077 241.565,262.685 242.690,262.800 242.800 C 262.914 242.910,263.366 243.720,263.804 244.600 C 264.242 245.480,264.690 246.290,264.800 246.400 C 265.317 246.917,266.400 249.192,266.400 249.762 C 266.400 250.113,266.580 250.400,266.800 250.400 C 267.020 250.400,267.200 250.670,267.200 251.000 C 267.200 251.330,267.372 251.600,267.582 251.600 C 267.792 251.600,268.082 252.230,268.226 253.000 C 268.371 253.770,268.649 254.400,268.845 254.400 C 269.040 254.400,269.200 254.670,269.200 255.000 C 269.200 255.330,269.380 255.600,269.600 255.600 C 269.820 255.600,270.000 255.945,270.000 256.367 C 270.000 256.788,270.135 257.193,270.300 257.267 C 270.465 257.340,271.230 258.660,272.000 260.200 C 272.770 261.740,273.499 263.090,273.621 263.200 C 273.964 263.510,275.200 266.272,275.200 266.727 C 275.200 266.951,275.335 267.193,275.500 267.267 C 275.781 267.391,276.666 268.970,279.165 273.800 C 279.734 274.900,280.335 275.860,280.500 275.933 C 280.665 276.007,280.800 276.412,280.800 276.833 C 280.800 277.255,280.966 277.600,281.168 277.600 C 281.371 277.600,281.655 278.140,281.800 278.800 C 281.945 279.460,282.229 280.000,282.432 280.000 C 282.634 280.000,282.800 280.345,282.800 280.767 C 282.800 281.188,282.937 281.593,283.104 281.667 C 283.386 281.791,284.112 283.088,286.763 288.200 C 287.333 289.300,287.935 290.260,288.100 290.333 C 288.265 290.407,288.400 290.649,288.400 290.873 C 288.400 291.353,289.651 294.111,290.000 294.400 C 290.133 294.510,290.575 295.320,290.983 296.200 C 291.391 297.080,292.147 298.471,292.662 299.292 C 293.178 300.113,293.600 301.043,293.600 301.359 C 293.600 301.675,293.735 301.993,293.900 302.067 C 294.373 302.277,295.600 304.656,295.600 305.362 C 295.600 305.713,295.780 306.000,296.000 306.000 C 296.220 306.000,296.400 306.270,296.400 306.600 C 296.400 306.930,296.572 307.200,296.782 307.200 C 296.992 307.200,297.282 307.830,297.426 308.600 C 297.571 309.370,297.827 310.000,297.995 310.000 C 298.164 310.000,298.819 311.035,299.451 312.300 C 300.083 313.565,300.699 314.690,300.821 314.800 C 301.177 315.122,302.400 317.880,302.400 318.360 C 302.400 318.602,302.538 318.800,302.706 318.800 C 303.027 318.800,304.400 321.720,304.400 322.403 C 304.400 322.621,304.535 322.801,304.700 322.801 C 304.865 322.802,305.540 323.837,306.200 325.101 C 306.860 326.366,307.535 327.460,307.700 327.533 C 307.865 327.607,308.000 328.012,308.000 328.433 C 308.000 328.855,308.166 329.200,308.368 329.200 C 308.571 329.200,308.855 329.740,309.000 330.400 C 309.145 331.060,309.429 331.600,309.632 331.600 C 309.834 331.600,310.000 331.960,310.000 332.400 C 310.000 332.840,310.160 333.200,310.357 333.200 C 310.553 333.200,310.837 333.693,310.988 334.296 C 311.140 334.899,311.384 335.484,311.532 335.596 C 311.902 335.878,313.282 338.373,315.293 342.400 C 316.227 344.270,317.122 345.858,317.283 345.929 C 317.443 346.000,317.690 346.675,317.832 347.429 C 317.973 348.183,318.227 348.800,318.395 348.800 C 318.564 348.800,319.219 349.835,319.851 351.100 C 320.483 352.365,321.095 353.490,321.211 353.600 C 321.327 353.710,321.772 354.610,322.200 355.600 C 322.628 356.590,323.082 357.490,323.210 357.600 C 323.568 357.909,324.800 360.667,324.800 361.160 C 324.800 361.402,324.980 361.600,325.200 361.600 C 325.420 361.600,325.600 361.870,325.600 362.200 C 325.600 362.530,325.766 362.800,325.968 362.800 C 326.171 362.800,326.455 363.340,326.600 364.000 C 326.745 364.660,327.029 365.200,327.232 365.200 C 327.434 365.200,327.600 365.470,327.600 365.800 C 327.600 366.130,327.735 366.401,327.900 366.401 C 328.065 366.402,328.547 367.257,328.971 368.301 C 329.394 369.346,329.854 370.290,329.991 370.400 C 330.356 370.691,331.600 373.445,331.600 373.960 C 331.600 374.202,331.735 374.402,331.900 374.405 C 332.065 374.407,332.557 375.172,332.994 376.105 C 333.431 377.037,333.882 377.890,333.996 378.000 C 334.111 378.110,334.743 379.280,335.402 380.600 C 336.061 381.920,336.735 383.060,336.900 383.133 C 337.065 383.207,337.200 383.612,337.200 384.033 C 337.200 384.455,337.366 384.800,337.568 384.800 C 337.771 384.800,338.055 385.340,338.200 386.000 C 338.345 386.660,338.629 387.200,338.832 387.200 C 339.034 387.200,339.200 387.560,339.200 388.000 C 339.200 388.440,339.368 388.800,339.573 388.800 C 339.778 388.800,340.072 389.205,340.227 389.700 C 340.381 390.195,340.620 390.690,340.758 390.800 C 341.171 391.130,343.200 395.373,343.200 395.906 C 343.200 396.178,343.380 396.400,343.600 396.400 C 343.820 396.400,344.000 396.670,344.000 397.000 C 344.000 397.330,344.172 397.600,344.382 397.600 C 344.592 397.600,344.882 398.230,345.026 399.000 C 345.171 399.770,345.449 400.400,345.645 400.400 C 345.840 400.400,346.000 400.670,346.000 401.000 C 346.000 401.330,346.135 401.602,346.300 401.604 C 346.465 401.606,346.955 402.416,347.390 403.404 C 347.824 404.392,348.319 405.200,348.490 405.200 C 348.660 405.200,348.800 405.377,348.800 405.592 C 348.800 405.808,349.520 407.500,350.400 409.352 C 351.280 411.204,352.000 413.098,352.000 413.560 C 352.000 414.022,352.180 414.400,352.400 414.400 C 352.620 414.400,352.800 414.814,352.800 415.320 C 352.800 415.826,352.979 416.419,353.198 416.638 C 353.417 416.857,353.714 418.429,353.858 420.132 C 354.002 421.834,354.273 423.321,354.460 423.437 C 354.906 423.712,354.903 429.889,354.457 430.165 C 354.268 430.282,354.017 431.433,353.900 432.724 C 353.783 434.015,353.509 435.415,353.290 435.835 C 353.072 436.256,352.667 437.140,352.391 437.800 C 351.402 440.160,350.613 441.600,350.309 441.600 C 350.139 441.600,350.000 441.857,350.000 442.171 C 350.000 443.049,342.511 450.400,341.617 450.400 C 341.388 450.400,341.200 450.548,341.200 450.729 C 341.200 451.256,335.444 454.400,334.479 454.400 C 333.995 454.400,333.600 454.536,333.600 454.702 C 333.600 455.132,331.516 455.999,329.820 456.274 C 329.028 456.403,328.284 456.664,328.167 456.854 C 328.049 457.044,327.369 457.200,326.656 457.200 C 325.943 457.200,325.135 457.425,324.860 457.700 C 324.462 458.098,299.475 458.200,202.600 458.200 C 105.725 458.200,80.738 458.098,80.340 457.700 C 80.065 457.425,79.347 457.200,78.744 457.200 C 78.141 457.200,77.536 457.020,77.400 456.800 C 77.264 456.580,76.776 456.400,76.316 456.400 C 75.196 456.400,68.400 453.269,68.400 452.752 C 68.400 452.606,67.971 452.379,67.447 452.247 C 66.922 452.116,65.913 451.466,65.204 450.804 C 64.495 450.142,63.755 449.600,63.558 449.600 C 63.036 449.600,56.800 443.423,56.800 442.905 C 56.800 442.664,56.665 442.407,56.500 442.333 C 56.069 442.142,54.000 438.894,54.000 438.409 C 54.000 438.184,53.828 438.000,53.618 438.000 C 53.408 438.000,53.118 437.370,52.974 436.600 C 52.829 435.830,52.551 435.200,52.355 435.200 C 52.160 435.200,52.000 434.786,52.000 434.280 C 52.000 433.774,51.775 433.135,51.500 432.860 C 50.787 432.146,50.787 416.653,51.500 415.940 C 51.775 415.665,52.000 415.037,52.000 414.544 C 52.000 414.051,52.166 413.545,52.369 413.419 C 52.572 413.294,52.856 412.654,53.001 411.998 C 53.356 410.380,56.772 403.600,57.232 403.600 C 57.434 403.600,57.600 403.402,57.600 403.160 C 57.600 402.653,58.840 399.897,59.202 399.600 C 59.336 399.490,59.688 398.800,59.985 398.066 C 60.282 397.332,60.722 396.522,60.963 396.265 C 61.203 396.008,61.939 394.718,62.598 393.399 C 63.257 392.079,63.889 390.910,64.004 390.800 C 64.118 390.690,64.569 389.837,65.006 388.905 C 65.443 387.972,65.915 387.207,66.057 387.205 C 66.198 387.202,66.437 386.707,66.588 386.104 C 66.740 385.501,66.985 384.916,67.134 384.804 C 67.283 384.692,67.936 383.565,68.587 382.300 C 69.237 381.035,69.911 380.000,70.084 380.000 C 70.258 380.000,70.400 379.640,70.400 379.200 C 70.400 378.760,70.566 378.400,70.768 378.400 C 70.971 378.400,71.255 377.860,71.400 377.200 C 71.545 376.540,71.792 376.000,71.950 376.000 C 72.107 376.000,72.570 375.190,72.978 374.200 C 73.387 373.210,73.873 372.400,74.060 372.400 C 74.247 372.400,74.400 372.130,74.400 371.800 C 74.400 371.470,74.580 371.200,74.800 371.200 C 75.020 371.200,75.200 370.945,75.200 370.632 C 75.200 370.104,76.347 367.649,76.804 367.200 C 76.916 367.090,77.366 366.280,77.804 365.400 C 78.242 364.520,78.735 363.740,78.900 363.667 C 79.065 363.593,79.200 363.278,79.200 362.967 C 79.200 362.655,79.380 362.400,79.600 362.400 C 79.820 362.400,80.000 362.113,80.000 361.762 C 80.000 361.192,81.083 358.917,81.600 358.400 C 81.710 358.290,82.158 357.480,82.596 356.600 C 83.034 355.720,83.489 354.910,83.607 354.800 C 83.725 354.690,84.175 353.790,84.606 352.800 C 85.037 351.810,85.683 350.676,86.042 350.281 C 86.402 349.885,87.026 348.760,87.430 347.781 C 87.834 346.801,88.307 346.000,88.482 346.000 C 88.657 346.000,88.800 345.772,88.800 345.494 C 88.800 345.215,89.520 343.755,90.400 342.249 C 91.280 340.743,92.000 339.261,92.000 338.956 C 92.000 338.650,92.180 338.400,92.400 338.400 C 92.620 338.400,92.800 338.130,92.800 337.800 C 92.800 337.470,92.935 337.199,93.100 337.199 C 93.265 337.198,93.733 336.388,94.140 335.399 C 94.546 334.409,95.027 333.600,95.208 333.600 C 95.389 333.600,95.655 333.060,95.800 332.400 C 95.945 331.740,96.229 331.200,96.432 331.200 C 96.634 331.200,96.800 330.840,96.800 330.400 C 96.800 329.960,96.941 329.600,97.112 329.600 C 97.284 329.600,97.631 329.105,97.884 328.500 C 98.413 327.234,99.674 325.096,100.068 324.796 C 100.216 324.684,100.460 324.099,100.612 323.496 C 100.763 322.893,101.047 322.400,101.243 322.400 C 101.440 322.400,101.600 322.040,101.600 321.600 C 101.600 321.160,101.760 320.800,101.957 320.800 C 102.153 320.800,102.416 320.391,102.541 319.892 C 102.666 319.393,103.136 318.590,103.585 318.109 C 104.033 317.627,104.400 317.045,104.400 316.814 C 104.400 316.257,106.517 312.237,106.900 312.067 C 107.065 311.993,107.200 311.691,107.200 311.395 C 107.200 311.099,107.429 310.619,107.708 310.329 C 107.988 310.038,108.797 308.630,109.506 307.200 C 110.926 304.338,112.483 301.511,112.811 301.200 C 112.927 301.090,113.372 300.190,113.800 299.200 C 114.228 298.210,114.675 297.310,114.793 297.200 C 114.911 297.090,115.366 296.280,115.804 295.400 C 116.242 294.520,116.735 293.740,116.900 293.667 C 117.065 293.593,117.200 293.278,117.200 292.967 C 117.200 292.655,117.380 292.400,117.600 292.400 C 117.820 292.400,118.000 292.113,118.000 291.762 C 118.000 291.186,119.093 288.898,119.606 288.400 C 119.719 288.290,120.169 287.437,120.606 286.505 C 121.043 285.572,121.535 284.807,121.700 284.805 C 121.865 284.802,122.000 284.530,122.000 284.200 C 122.000 283.870,122.160 283.600,122.357 283.600 C 122.553 283.600,122.835 283.116,122.983 282.524 C 123.132 281.933,123.576 280.988,123.970 280.424 C 124.365 279.861,125.018 278.680,125.423 277.800 C 125.827 276.920,126.258 276.110,126.379 276.000 C 126.501 275.890,127.117 274.765,127.749 273.500 C 128.381 272.235,129.056 271.200,129.249 271.200 C 129.442 271.200,129.600 271.002,129.600 270.760 C 129.600 270.253,130.840 267.497,131.202 267.200 C 131.336 267.090,131.688 266.400,131.985 265.666 C 132.282 264.932,132.722 264.122,132.963 263.865 C 133.203 263.608,133.940 262.318,134.600 260.999 C 135.260 259.679,135.935 258.540,136.100 258.467 C 136.265 258.393,136.400 258.120,136.400 257.860 C 136.400 257.599,136.825 256.759,137.344 255.993 C 137.862 255.227,138.426 254.158,138.596 253.619 C 139.111 251.987,141.600 250.608,141.600 251.955 C 141.600 252.151,142.252 252.433,143.049 252.583 C 143.846 252.732,144.791 253.009,145.149 253.198 C 146.531 253.928,150.149 254.958,153.104 255.465 C 153.821 255.588,154.506 255.849,154.627 256.044 C 154.748 256.240,155.632 256.400,156.590 256.400 C 157.549 256.400,158.393 256.572,158.467 256.782 C 158.872 257.943,185.524 257.938,185.933 256.778 C 186.007 256.570,186.761 256.400,187.610 256.400 C 188.458 256.400,189.264 256.220,189.400 256.000 C 189.536 255.780,190.017 255.600,190.470 255.600 C 191.245 255.600,194.685 254.613,196.000 254.014 C 196.330 253.863,197.723 253.394,199.097 252.970 C 200.470 252.547,201.595 252.065,201.597 251.900 C 201.598 251.735,202.050 251.600,202.600 251.600 C 203.150 251.600,203.600 251.420,203.600 251.200 C 203.600 250.980,203.811 250.800,204.070 250.800 C 204.587 250.800,211.279 247.607,211.600 247.207 C 211.892 246.843,214.646 245.600,215.160 245.600 C 215.402 245.600,215.601 245.465,215.603 245.300 C 215.606 244.898,217.919 243.600,218.632 243.600 C 218.945 243.600,219.200 243.420,219.200 243.200 C 219.200 242.980,219.470 242.800,219.800 242.800 C 220.130 242.800,220.401 242.665,220.403 242.500 C 220.406 242.098,222.719 240.800,223.432 240.800 C 223.745 240.800,224.000 240.617,224.000 240.394 C 224.000 240.170,224.675 239.675,225.500 239.294 C 226.325 238.912,227.356 238.278,227.792 237.885 C 228.228 237.491,229.032 237.057,229.579 236.919 C 230.126 236.782,230.899 236.366,231.298 235.995 C 232.279 235.081,238.462 232.000,239.315 232.000 C 239.692 232.000,240.000 231.820,240.000 231.600 C 240.000 231.380,240.414 231.200,240.920 231.200 C 241.426 231.200,242.011 231.033,242.220 230.829 C 243.139 229.930,249.978 229.956,252.300 230.866 M223.600 288.400 C 223.600 288.620,223.263 288.800,222.851 288.800 C 221.853 288.800,218.096 292.479,217.771 293.774 C 217.629 294.338,217.353 294.800,217.157 294.800 C 216.960 294.800,216.800 295.790,216.800 297.000 C 216.800 298.210,216.980 299.200,217.200 299.200 C 217.420 299.200,217.600 299.650,217.600 300.200 C 217.600 300.750,217.780 301.200,218.000 301.200 C 218.220 301.200,218.406 301.425,218.413 301.700 C 218.505 305.131,228.492 307.594,230.800 304.754 C 230.910 304.619,231.367 304.393,231.816 304.254 C 234.007 303.571,236.317 294.306,234.451 293.684 C 234.203 293.601,234.000 293.308,234.000 293.033 C 234.000 292.277,231.445 289.879,229.578 288.883 C 227.848 287.959,223.600 287.616,223.600 288.400 M151.600 313.600 C 151.600 313.820,151.071 314.000,150.424 314.000 C 149.777 314.000,149.148 314.160,149.027 314.356 C 148.906 314.551,148.340 314.829,147.769 314.972 C 146.781 315.220,146.287 315.597,143.712 318.067 C 141.354 320.329,139.600 323.461,139.600 325.410 C 139.600 325.928,139.420 326.464,139.200 326.600 C 138.705 326.906,138.666 331.070,139.156 331.373 C 139.351 331.494,139.599 332.179,139.706 332.896 C 139.970 334.671,140.855 336.839,141.695 337.771 C 142.078 338.194,142.495 338.869,142.622 339.271 C 142.750 339.672,142.994 340.000,143.165 340.000 C 143.336 340.000,143.988 340.440,144.613 340.978 C 145.239 341.516,146.392 342.281,147.176 342.678 C 147.959 343.075,148.690 343.515,148.800 343.655 C 149.698 344.802,160.800 344.706,160.800 343.551 C 160.800 343.358,161.250 343.200,161.800 343.200 C 162.968 343.200,163.090 343.836,162.100 344.759 C 161.383 345.427,160.609 346.536,160.118 347.600 C 159.965 347.930,159.519 348.547,159.125 348.970 C 158.732 349.394,158.298 350.339,158.160 351.070 C 158.023 351.802,157.751 352.400,157.555 352.400 C 157.360 352.400,157.200 352.814,157.200 353.320 C 157.200 353.826,156.975 354.465,156.700 354.740 C 156.032 355.408,155.997 368.252,156.659 369.639 C 156.912 370.167,157.383 371.230,157.706 372.000 C 158.029 372.770,158.541 373.985,158.844 374.700 C 159.147 375.415,159.531 376.000,159.698 376.000 C 159.864 376.000,160.000 376.192,160.000 376.427 C 160.000 377.302,164.251 382.176,166.082 383.400 C 169.350 385.585,170.038 386.000,170.392 386.000 C 170.616 386.000,170.800 386.172,170.800 386.382 C 170.800 386.592,171.432 386.882,172.204 387.027 C 172.977 387.172,173.707 387.450,173.828 387.645 C 173.949 387.840,174.472 388.000,174.990 388.000 C 175.509 388.000,176.007 388.221,176.097 388.491 C 176.332 389.196,188.556 389.204,189.260 388.500 C 189.535 388.225,190.264 388.000,190.880 388.000 C 191.496 388.000,192.000 387.828,192.000 387.618 C 192.000 387.408,192.630 387.118,193.400 386.974 C 194.170 386.829,194.802 386.596,194.805 386.455 C 194.807 386.315,195.527 385.856,196.405 385.436 C 197.282 385.015,198.000 384.520,198.000 384.336 C 198.000 384.151,198.236 384.000,198.525 384.000 C 199.237 384.000,204.800 378.472,204.800 377.764 C 204.800 377.454,204.939 377.200,205.109 377.200 C 205.279 377.200,205.772 376.525,206.205 375.700 C 206.638 374.875,207.085 374.110,207.198 374.000 C 207.311 373.890,207.736 372.720,208.142 371.400 C 208.548 370.080,209.061 368.657,209.282 368.237 C 209.841 367.179,209.799 356.266,209.235 356.078 C 208.996 355.999,208.800 355.657,208.800 355.320 C 208.800 354.452,207.460 350.627,207.100 350.467 C 206.935 350.393,206.800 350.160,206.800 349.947 C 206.800 348.411,199.147 339.600,197.813 339.600 C 197.530 339.600,197.074 339.330,196.800 339.000 C 196.526 338.670,196.054 338.400,195.751 338.400 C 195.448 338.400,195.200 338.228,195.200 338.018 C 195.200 337.808,194.568 337.518,193.796 337.373 C 193.023 337.228,192.293 336.950,192.172 336.755 C 192.051 336.560,191.528 336.400,191.010 336.400 C 190.491 336.400,189.992 336.175,189.900 335.900 C 189.776 335.527,188.049 335.400,183.087 335.400 C 178.303 335.400,176.300 335.540,175.940 335.900 C 175.665 336.175,175.144 336.400,174.781 336.400 C 174.419 336.400,173.600 336.648,172.961 336.950 C 172.323 337.253,171.215 337.747,170.500 338.048 C 169.785 338.349,169.200 338.731,169.200 338.898 C 169.200 339.064,168.840 339.200,168.400 339.200 C 167.349 339.200,167.397 338.572,168.610 336.450 C 170.703 332.790,171.089 324.233,169.226 322.800 C 169.083 322.690,168.692 322.020,168.357 321.310 C 167.504 319.505,164.111 316.000,163.217 316.000 C 162.988 316.000,162.800 315.844,162.800 315.654 C 162.800 315.250,159.691 314.000,158.687 314.000 C 158.309 314.000,158.000 313.820,158.000 313.600 C 158.000 313.367,156.667 313.200,154.800 313.200 C 152.933 313.200,151.600 313.367,151.600 313.600 " stroke="none" fill="#ffffff" fill-rule="evenodd"></path></g></svg>