<?xml version="1.0" standalone="no"?>
<!DOCTYPE svg PUBLIC "-//W3C//DTD SVG 20010904//EN"
 "http://www.w3.org/TR/2001/REC-SVG-20010904/DTD/svg10.dtd">
<svg version="1.0" xmlns="http://www.w3.org/2000/svg"
 width="1200.000000pt" height="1200.000000pt" viewBox="0 0 1200.000000 1200.000000"
 preserveAspectRatio="xMidYMid meet">
<metadata>
Created by potrace 1.11, written by Peter Selinger 2001-2013
</metadata>
<g transform="translate(0.000000,1200.000000) scale(0.100000,-0.100000)"
fill="#000000" stroke="none">
<path d="M794 7196 c-17 -8 -40 -26 -52 -41 l-22 -28 0 -1069 c0 -1174 -3
-1110 60 -1143 25 -13 162 -15 1098 -15 l1069 0 28 22 c57 45 55 -3 55 1135 0
996 -1 1050 -18 1082 -10 19 -34 43 -53 53 -32 17 -85 18 -1084 18 -856 -1
-1056 -3 -1081 -14z m1660 -555 l31 -31 0 -556 0 -556 -32 -28 c-67 -60 -159
-44 -194 34 -17 38 -19 76 -19 529 0 428 -2 487 -15 487 -25 0 39 117 78 141
47 29 110 21 151 -20z m-1006 9 c38 -24 94 -126 75 -138 -9 -6 -14 -137 -19
-506 l-7 -498 -24 -28 c-51 -61 -136 -60 -188 1 l-25 31 0 534 c0 458 2 539
15 564 30 58 112 77 173 40z m500 -290 c62 -38 63 -49 60 -470 -3 -367 -4
-379 -24 -407 -12 -15 -38 -34 -59 -42 -51 -20 -110 0 -142 48 -23 34 -23 35
-23 413 0 418 0 420 63 458 41 25 83 25 125 0z"/>
<path d="M6319 6777 c-127 -44 -234 -153 -276 -281 -20 -65 -30 -354 -14 -441
16 -88 71 -193 131 -249 58 -54 150 -101 229 -116 81 -15 383 -12 464 5 164
35 289 154 333 320 9 33 14 112 14 232 0 197 -11 256 -63 345 -37 64 -118 135
-195 171 l-67 32 -245 3 c-233 2 -248 1 -311 -21z m507 -192 c64 -19 116 -63
146 -122 21 -44 23 -60 23 -213 0 -191 -12 -236 -74 -293 -69 -62 -102 -69
-328 -65 l-200 3 -49 30 c-30 19 -60 49 -79 79 -30 49 -30 51 -33 215 -4 178
3 221 44 282 24 35 81 74 132 89 50 15 364 11 418 -5z"/>
<path d="M9786 6769 l-26 -31 0 -519 0 -519 100 0 100 0 2 375 3 375 359 -376
c198 -207 371 -380 385 -386 37 -13 84 -2 112 28 l24 26 3 524 3 524 -106 0
-105 0 -2 -374 -3 -374 -363 379 -363 379 -49 0 c-42 0 -52 -4 -74 -31z"/>
<path d="M3712 6771 c-70 -24 -121 -67 -152 -127 l-25 -48 -3 -448 -3 -448
101 0 100 0 0 404 c0 398 4 449 33 468 7 4 131 8 277 8 246 0 267 -2 297 -20
52 -32 73 -85 73 -187 0 -108 -17 -147 -80 -180 -41 -22 -53 -23 -287 -23
l-244 0 3 -102 3 -103 265 0 c252 1 268 2 322 24 76 30 159 106 195 179 27 54
28 64 28 202 0 142 -1 146 -32 212 -38 81 -97 142 -172 177 l-56 26 -295 3
c-266 2 -300 0 -348 -17z"/>
<path d="M4828 6775 c-15 -9 -32 -24 -38 -35 -6 -12 -10 -200 -10 -529 l0
-511 100 0 100 0 0 440 0 440 338 -2 337 -3 3 -100 c3 -122 -12 -158 -78 -192
-42 -22 -55 -23 -287 -23 l-243 0 0 -105 0 -105 74 0 73 0 203 -175 202 -175
159 0 159 0 -43 38 c-34 31 -111 97 -350 303 -5 4 15 12 45 18 123 26 237 117
273 218 23 62 32 264 16 330 -17 65 -56 119 -110 151 l-46 27 -425 2 c-362 2
-429 0 -452 -12z"/>
<path d="M7564 6773 c-149 -44 -241 -200 -214 -365 17 -109 75 -189 168 -235
l57 -28 290 -5 c209 -4 296 -9 312 -18 49 -28 67 -106 37 -163 -29 -57 -44
-59 -474 -59 l-390 0 0 -100 0 -100 415 0 c400 0 416 1 472 22 39 14 74 38
109 72 64 65 88 130 87 236 -1 101 -28 165 -99 229 -88 80 -107 84 -424 88
-162 2 -286 8 -302 14 -30 12 -58 63 -58 104 0 35 27 91 48 102 9 4 179 10
377 13 l360 5 3 103 3 102 -363 -1 c-292 0 -373 -4 -414 -16z"/>
<path d="M8627 6769 c-46 -35 -49 -66 -45 -479 3 -368 4 -387 24 -430 26 -54
74 -104 128 -133 40 -21 52 -22 444 -25 l402 -3 0 100 0 100 -376 3 -376 3
-19 24 c-18 22 -19 43 -19 337 l0 314 393 2 392 3 3 103 3 102 -464 0 c-453 0
-465 0 -490 -21z"/>
<path d="M8860 6245 l0 -105 315 0 315 0 0 105 0 105 -315 0 -315 0 0 -105z"/>
<path d="M4918 5451 c-72 -23 -108 -74 -108 -154 0 -53 3 -61 39 -99 37 -41
42 -42 107 -46 79 -4 120 15 155 70 31 50 23 137 -17 179 -16 17 -36 34 -44
39 -25 13 -103 20 -132 11z m87 -71 c62 -23 64 -125 3 -156 -91 -47 -170 75
-92 144 28 24 49 27 89 12z"/>
<path d="M6457 5446 c-48 -18 -71 -38 -91 -81 -21 -43 -20 -81 3 -131 26 -58
73 -84 148 -84 71 0 118 26 146 80 23 44 18 121 -10 158 -43 58 -128 83 -196
58z m96 -68 c56 -30 64 -93 17 -140 -26 -25 -36 -29 -63 -24 -74 14 -100 94
-48 147 31 31 59 36 94 17z"/>
<path d="M7937 5446 c-48 -18 -66 -41 -67 -85 0 -46 23 -68 89 -87 70 -20 85
-32 70 -50 -15 -18 -61 -18 -106 1 -19 8 -37 15 -38 15 -2 0 -8 -14 -14 -30
-9 -28 -8 -31 19 -45 17 -9 56 -15 94 -15 55 0 69 4 95 26 24 20 31 34 31 62
0 47 -22 69 -89 88 -70 20 -85 32 -70 50 14 17 72 18 101 3 22 -12 32 -5 42
28 8 27 -10 39 -74 47 -28 4 -59 1 -83 -8z"/>
<path d="M9269 5450 c-78 -23 -114 -79 -107 -163 5 -61 27 -96 80 -123 40 -21
127 -18 166 6 38 24 39 30 9 59 -21 19 -26 20 -36 7 -36 -43 -120 -21 -140 35
-9 26 -8 39 6 68 24 48 71 62 119 36 34 -18 35 -18 57 3 l21 22 -20 21 c-32
32 -103 45 -155 29z"/>
<path d="M9709 5448 c-20 -5 -51 -25 -70 -44 -28 -29 -33 -42 -36 -91 -5 -68
16 -110 69 -144 27 -16 46 -19 100 -17 61 3 71 7 103 38 19 19 40 51 46 72 20
78 -30 166 -109 188 -43 12 -54 11 -103 -2z m104 -78 c51 -40 42 -120 -16
-148 -76 -37 -148 51 -106 129 21 40 83 50 122 19z"/>
<path d="M10023 5449 c-39 -11 -73 -53 -73 -88 0 -46 26 -69 100 -91 72 -21
79 -27 58 -48 -16 -16 -61 -15 -103 2 -35 15 -35 15 -50 -15 -16 -30 -16 -30
19 -44 45 -19 139 -19 175 0 34 17 54 66 42 98 -14 35 -42 54 -101 69 -43 11
-55 18 -55 34 0 15 8 20 37 22 20 2 47 -2 59 -9 19 -10 25 -9 36 7 18 24 16
41 -4 53 -29 15 -105 21 -140 10z"/>
<path d="M4220 5301 l0 -151 35 0 c34 0 35 1 35 40 l0 40 45 0 c91 0 145 42
145 112 0 27 -8 47 -29 70 -29 33 -31 33 -130 36 l-101 4 0 -151z m154 79 c18
-6 26 -17 26 -33 0 -34 -19 -47 -67 -47 l-43 0 0 45 c0 43 1 45 29 45 16 0 41
-4 55 -10z"/>
<path d="M4520 5301 l0 -151 40 0 40 0 0 40 c0 36 3 40 25 40 18 0 32 -11 51
-40 23 -35 31 -40 65 -40 22 0 39 4 39 9 0 4 -12 25 -28 46 l-27 38 27 28 c39
39 39 97 -1 141 -29 33 -31 33 -130 36 l-101 4 0 -151z m154 79 c18 -6 26 -17
26 -33 0 -33 -18 -47 -62 -47 l-38 0 0 45 c0 41 2 45 24 45 14 0 36 -4 50 -10z"/>
<path d="M5130 5443 c0 -4 28 -72 62 -150 l62 -143 37 0 37 0 61 143 c34 78
61 146 61 150 0 5 -17 7 -37 5 -37 -3 -38 -4 -77 -96 -22 -51 -43 -89 -47 -85
-4 5 -23 46 -42 93 l-35 85 -41 3 c-23 2 -41 0 -41 -5z"/>
<path d="M5470 5300 l0 -150 115 0 115 0 0 30 0 30 -75 0 -75 0 0 30 0 30 65
0 65 0 0 30 0 30 -65 0 -65 0 0 30 0 30 75 0 75 0 0 30 0 30 -115 0 -115 0 0
-150z"/>
<path d="M5750 5300 l0 -150 115 0 115 0 0 30 0 30 -80 0 -80 0 0 30 0 30 70
0 70 0 0 30 0 30 -70 0 -70 0 0 30 0 30 80 0 80 0 0 30 0 30 -115 0 -115 0 0
-150z"/>
<path d="M6030 5300 l0 -150 88 0 c71 0 96 4 132 23 57 29 83 75 77 140 -9 98
-66 137 -204 137 l-93 0 0 -150z m197 56 c29 -34 29 -75 2 -110 -18 -22 -28
-26 -75 -26 l-54 0 0 86 0 87 52 -5 c40 -4 57 -11 75 -32z"/>
<path d="M6720 5300 l0 -150 40 0 40 0 0 40 c0 37 2 40 28 40 21 0 33 -9 52
-40 23 -37 28 -40 68 -40 47 0 47 1 5 58 l-24 32 25 31 c49 58 29 143 -41 170
-13 5 -62 9 -109 9 l-84 0 0 -150z m155 80 c22 -8 26 -15 23 -42 -3 -32 -5
-33 -50 -36 l-48 -3 0 45 c0 42 2 46 24 46 14 0 37 -4 51 -10z"/>
<path d="M7140 5300 l0 -150 92 0 c118 0 167 21 197 84 26 52 26 79 2 133 -29
63 -76 83 -196 83 l-95 0 0 -150z m208 55 c29 -35 29 -79 -3 -110 -19 -20 -34
-25 -75 -25 l-50 0 0 86 0 87 53 -6 c39 -5 58 -13 75 -32z"/>
<path d="M7490 5300 l0 -150 115 0 115 0 0 30 0 30 -80 0 -80 0 0 30 0 30 70
0 70 0 0 30 0 30 -70 0 -70 0 0 30 0 30 80 0 80 0 0 30 0 30 -115 0 -115 0 0
-150z"/>
<path d="M8150 5300 l0 -150 115 0 115 0 0 30 0 30 -75 0 -75 0 0 30 0 30 65
0 65 0 0 30 0 30 -65 0 -65 0 0 30 0 30 75 0 75 0 0 30 0 30 -115 0 -115 0 0
-150z"/>
<path d="M8430 5301 l0 -151 40 0 40 0 0 40 c0 36 3 40 24 40 17 0 33 -12 53
-40 24 -34 33 -40 66 -40 20 0 37 3 37 8 0 4 -12 24 -26 45 l-25 38 25 30 c37
43 35 98 -3 141 -29 33 -31 33 -130 36 l-101 4 0 -151z m154 79 c20 -7 26 -17
26 -39 0 -32 -14 -41 -66 -41 -34 0 -34 0 -34 45 0 41 2 45 24 45 14 0 36 -4
50 -10z"/>
<path d="M8700 5443 c0 -5 27 -72 61 -150 l61 -143 38 0 37 0 61 143 c34 78
62 146 62 150 0 5 -17 7 -37 5 -36 -3 -38 -5 -77 -95 -22 -51 -43 -89 -47 -85
-4 4 -24 46 -44 95 l-37 87 -39 0 c-22 0 -39 -3 -39 -7z"/>
<path d="M9040 5300 l0 -150 40 0 40 0 0 150 0 150 -40 0 -40 0 0 -150z"/>
<path d="M9480 5300 l0 -150 40 0 40 0 0 150 0 150 -40 0 -40 0 0 -150z"/>
</g>
</svg>
